<svg width="563" height="20" viewBox="0 0 563 20" fill="none" xmlns="http://www.w3.org/2000/svg">
<path d="M0.197 13.362H1.457V1.938H0.197V0.299999H6.14C6.84 0.299999 7.456 0.397999 7.988 0.593999C8.534 0.789999 8.989 1.056 9.353 1.392C9.731 1.728 10.011 2.134 10.193 2.61C10.389 3.072 10.487 3.576 10.487 4.122V4.374C10.487 4.78 10.424 5.151 10.298 5.487C10.172 5.823 9.997 6.124 9.773 6.39C9.549 6.656 9.283 6.887 8.975 7.083C8.681 7.265 8.359 7.405 8.009 7.503V7.755C8.709 7.951 9.297 8.329 9.773 8.889C10.249 9.435 10.487 10.107 10.487 10.905V11.157C10.487 11.703 10.389 12.214 10.193 12.69C10.011 13.152 9.731 13.558 9.353 13.908C8.989 14.244 8.534 14.51 7.988 14.706C7.456 14.902 6.84 15 6.14 15H0.197V13.362ZM3.221 13.362H6.014C6.84 13.362 7.512 13.159 8.03 12.753C8.548 12.333 8.807 11.759 8.807 11.031V10.905C8.807 10.149 8.562 9.554 8.072 9.12C7.582 8.672 6.917 8.448 6.077 8.448H3.221V13.362ZM3.221 6.81H6.077C6.917 6.81 7.582 6.593 8.072 6.159C8.562 5.725 8.807 5.13 8.807 4.374V4.248C8.807 3.534 8.548 2.974 8.03 2.568C7.512 2.148 6.84 1.938 6.014 1.938H3.221V6.81ZM21.2454 13.236H20.9934C20.6574 13.936 20.1884 14.454 19.5864 14.79C18.9984 15.126 18.3754 15.294 17.7174 15.294C17.0314 15.294 16.3944 15.182 15.8064 14.958C15.2184 14.72 14.7004 14.377 14.2524 13.929C13.8184 13.467 13.4754 12.907 13.2234 12.249C12.9714 11.591 12.8454 10.828 12.8454 9.96V9.624C12.8454 8.77 12.9714 8.014 13.2234 7.356C13.4754 6.698 13.8184 6.145 14.2524 5.697C14.7004 5.235 15.2184 4.885 15.8064 4.647C16.3944 4.409 17.0174 4.29 17.6754 4.29C18.3894 4.29 19.0334 4.451 19.6074 4.773C20.1954 5.081 20.6574 5.564 20.9934 6.222H21.2454V4.584H22.8834V12.858C22.8834 13.278 23.0724 13.488 23.4504 13.488H23.9754V15H22.8624C22.3864 15 21.9944 14.846 21.6864 14.538C21.3924 14.23 21.2454 13.838 21.2454 13.362V13.236ZM17.8854 13.74C18.3754 13.74 18.8234 13.649 19.2294 13.467C19.6494 13.285 20.0064 13.026 20.3004 12.69C20.5944 12.354 20.8254 11.955 20.9934 11.493C21.1614 11.017 21.2454 10.492 21.2454 9.918V9.666C21.2454 9.106 21.1614 8.595 20.9934 8.133C20.8254 7.657 20.5874 7.251 20.2794 6.915C19.9854 6.579 19.6284 6.32 19.2084 6.138C18.8024 5.942 18.3614 5.844 17.8854 5.844C17.3954 5.844 16.9474 5.935 16.5414 6.117C16.1354 6.299 15.7784 6.558 15.4704 6.894C15.1764 7.216 14.9454 7.615 14.7774 8.091C14.6094 8.553 14.5254 9.064 14.5254 9.624V9.96C14.5254 11.15 14.8334 12.081 15.4494 12.753C16.0794 13.411 16.8914 13.74 17.8854 13.74ZM34.6078 13.404H34.3558C34.1878 13.726 33.9708 14.006 33.7048 14.244C33.4528 14.482 33.1728 14.678 32.8648 14.832C32.5708 14.986 32.2558 15.098 31.9198 15.168C31.5838 15.252 31.2618 15.294 30.9538 15.294C30.2538 15.294 29.6028 15.175 29.0008 14.937C28.3988 14.699 27.8668 14.356 27.4048 13.908C26.9568 13.46 26.5998 12.907 26.3338 12.249C26.0818 11.577 25.9558 10.814 25.9558 9.96V9.624C25.9558 8.784 26.0888 8.035 26.3548 7.377C26.6208 6.705 26.9778 6.145 27.4258 5.697C27.8738 5.235 28.3988 4.885 29.0008 4.647C29.6028 4.409 30.2398 4.29 30.9118 4.29C31.6258 4.29 32.2908 4.451 32.9068 4.773C33.5368 5.081 34.0198 5.564 34.3558 6.222H34.6078V0.299999H36.2458V15H34.6078V13.404ZM31.1218 13.74C31.6118 13.74 32.0668 13.649 32.4868 13.467C32.9068 13.285 33.2708 13.026 33.5788 12.69C33.9008 12.354 34.1528 11.955 34.3348 11.493C34.5168 11.017 34.6078 10.492 34.6078 9.918V9.666C34.6078 9.106 34.5168 8.595 34.3348 8.133C34.1528 7.657 33.9008 7.251 33.5788 6.915C33.2708 6.579 32.8998 6.32 32.4658 6.138C32.0458 5.942 31.5978 5.844 31.1218 5.844C30.6318 5.844 30.1698 5.935 29.7358 6.117C29.3158 6.299 28.9448 6.558 28.6228 6.894C28.3148 7.23 28.0698 7.629 27.8878 8.091C27.7198 8.553 27.6358 9.064 27.6358 9.624V9.96C27.6358 10.548 27.7198 11.073 27.8878 11.535C28.0698 11.997 28.3148 12.396 28.6228 12.732C28.9448 13.054 29.3158 13.306 29.7358 13.488C30.1558 13.656 30.6178 13.74 31.1218 13.74ZM46.9622 13.236H46.7102C46.3742 13.936 45.9052 14.454 45.3032 14.79C44.7152 15.126 44.0922 15.294 43.4342 15.294C42.7482 15.294 42.1112 15.182 41.5232 14.958C40.9352 14.72 40.4172 14.377 39.9692 13.929C39.5352 13.467 39.1922 12.907 38.9402 12.249C38.6882 11.591 38.5622 10.828 38.5622 9.96V9.624C38.5622 8.77 38.6882 8.014 38.9402 7.356C39.1922 6.698 39.5352 6.145 39.9692 5.697C40.4172 5.235 40.9352 4.885 41.5232 4.647C42.1112 4.409 42.7342 4.29 43.3922 4.29C44.1062 4.29 44.7502 4.451 45.3242 4.773C45.9122 5.081 46.3742 5.564 46.7102 6.222H46.9622V4.584H48.6002V12.858C48.6002 13.278 48.7892 13.488 49.1672 13.488H49.6922V15H48.5792C48.1032 15 47.7112 14.846 47.4032 14.538C47.1092 14.23 46.9622 13.838 46.9622 13.362V13.236ZM43.6022 13.74C44.0922 13.74 44.5402 13.649 44.9462 13.467C45.3662 13.285 45.7232 13.026 46.0172 12.69C46.3112 12.354 46.5422 11.955 46.7102 11.493C46.8782 11.017 46.9622 10.492 46.9622 9.918V9.666C46.9622 9.106 46.8782 8.595 46.7102 8.133C46.5422 7.657 46.3042 7.251 45.9962 6.915C45.7022 6.579 45.3452 6.32 44.9252 6.138C44.5192 5.942 44.0782 5.844 43.6022 5.844C43.1122 5.844 42.6642 5.935 42.2582 6.117C41.8522 6.299 41.4952 6.558 41.1872 6.894C40.8932 7.216 40.6622 7.615 40.4942 8.091C40.3262 8.553 40.2422 9.064 40.2422 9.624V9.96C40.2422 11.15 40.5502 12.081 41.1662 12.753C41.7962 13.411 42.6082 13.74 43.6022 13.74ZM54.4236 7.272C54.4236 7.776 54.6336 8.161 55.0536 8.427C55.4876 8.693 56.2716 8.868 57.4056 8.952C58.6236 9.05 59.5476 9.344 60.1776 9.834C60.8216 10.31 61.1436 11.01 61.1436 11.934V12.06C61.1436 12.564 61.0386 13.019 60.8286 13.425C60.6326 13.817 60.3526 14.153 59.9886 14.433C59.6386 14.713 59.2046 14.923 58.6866 15.063C58.1826 15.217 57.6296 15.294 57.0276 15.294C56.2156 15.294 55.5156 15.189 54.9276 14.979C54.3536 14.755 53.8706 14.468 53.4786 14.118C53.1006 13.754 52.8136 13.348 52.6176 12.9C52.4216 12.438 52.3096 11.976 52.2816 11.514L53.8356 11.136C53.9056 11.934 54.2136 12.578 54.7596 13.068C55.3056 13.544 56.0336 13.782 56.9436 13.782C57.7136 13.782 58.3296 13.635 58.7916 13.341C59.2676 13.033 59.5056 12.606 59.5056 12.06C59.5056 11.472 59.2746 11.052 58.8126 10.8C58.3506 10.548 57.6016 10.387 56.5656 10.317C55.3616 10.233 54.4376 9.953 53.7936 9.477C53.1496 9.001 52.8276 8.308 52.8276 7.398V7.272C52.8276 6.782 52.9326 6.355 53.1426 5.991C53.3526 5.613 53.6326 5.298 53.9826 5.046C54.3466 4.794 54.7526 4.605 55.2006 4.479C55.6486 4.353 56.1176 4.29 56.6076 4.29C57.2936 4.29 57.8956 4.388 58.4136 4.584C58.9316 4.766 59.3656 5.011 59.7156 5.319C60.0656 5.613 60.3316 5.956 60.5136 6.348C60.7096 6.74 60.8356 7.132 60.8916 7.524L59.3376 7.902C59.2676 7.23 58.9946 6.705 58.5186 6.327C58.0566 5.949 57.4476 5.76 56.6916 5.76C56.3976 5.76 56.1106 5.795 55.8306 5.865C55.5646 5.921 55.3266 6.012 55.1166 6.138C54.9066 6.264 54.7386 6.425 54.6126 6.621C54.4866 6.803 54.4236 7.02 54.4236 7.272ZM67.282 7.272C67.282 7.776 67.492 8.161 67.912 8.427C68.346 8.693 69.13 8.868 70.264 8.952C71.482 9.05 72.406 9.344 73.036 9.834C73.68 10.31 74.002 11.01 74.002 11.934V12.06C74.002 12.564 73.897 13.019 73.687 13.425C73.491 13.817 73.211 14.153 72.847 14.433C72.497 14.713 72.063 14.923 71.545 15.063C71.041 15.217 70.488 15.294 69.886 15.294C69.074 15.294 68.374 15.189 67.786 14.979C67.212 14.755 66.729 14.468 66.337 14.118C65.959 13.754 65.672 13.348 65.476 12.9C65.28 12.438 65.168 11.976 65.14 11.514L66.694 11.136C66.764 11.934 67.072 12.578 67.618 13.068C68.164 13.544 68.892 13.782 69.802 13.782C70.572 13.782 71.188 13.635 71.65 13.341C72.126 13.033 72.364 12.606 72.364 12.06C72.364 11.472 72.133 11.052 71.671 10.8C71.209 10.548 70.46 10.387 69.424 10.317C68.22 10.233 67.296 9.953 66.652 9.477C66.008 9.001 65.686 8.308 65.686 7.398V7.272C65.686 6.782 65.791 6.355 66.001 5.991C66.211 5.613 66.491 5.298 66.841 5.046C67.205 4.794 67.611 4.605 68.059 4.479C68.507 4.353 68.976 4.29 69.466 4.29C70.152 4.29 70.754 4.388 71.272 4.584C71.79 4.766 72.224 5.011 72.574 5.319C72.924 5.613 73.19 5.956 73.372 6.348C73.568 6.74 73.694 7.132 73.75 7.524L72.196 7.902C72.126 7.23 71.853 6.705 71.377 6.327C70.915 5.949 70.306 5.76 69.55 5.76C69.256 5.76 68.969 5.795 68.689 5.865C68.423 5.921 68.185 6.012 67.975 6.138C67.765 6.264 67.597 6.425 67.471 6.621C67.345 6.803 67.282 7.02 67.282 7.272ZM92.0958 19.2H90.4578V4.584H92.0958V6.222H92.3478C92.7118 5.592 93.2158 5.116 93.8598 4.794C94.5038 4.458 95.2038 4.29 95.9598 4.29C96.6038 4.29 97.2128 4.409 97.7868 4.647C98.3608 4.885 98.8648 5.228 99.2988 5.676C99.7468 6.124 100.097 6.677 100.349 7.335C100.615 7.993 100.748 8.742 100.748 9.582V10.002C100.748 10.856 100.622 11.612 100.37 12.27C100.118 12.928 99.7678 13.481 99.3198 13.929C98.8858 14.377 98.3748 14.72 97.7868 14.958C97.1988 15.182 96.5758 15.294 95.9178 15.294C95.5818 15.294 95.2388 15.252 94.8888 15.168C94.5388 15.098 94.2028 14.986 93.8808 14.832C93.5728 14.664 93.2858 14.468 93.0198 14.244C92.7538 14.006 92.5298 13.726 92.3478 13.404H92.0958V19.2ZM95.5818 13.74C96.0858 13.74 96.5478 13.656 96.9678 13.488C97.3878 13.306 97.7518 13.054 98.0598 12.732C98.3818 12.41 98.6268 12.018 98.7948 11.556C98.9768 11.094 99.0678 10.576 99.0678 10.002V9.582C99.0678 9.022 98.9768 8.518 98.7948 8.07C98.6268 7.608 98.3818 7.216 98.0598 6.894C97.7518 6.558 97.3808 6.299 96.9468 6.117C96.5268 5.935 96.0718 5.844 95.5818 5.844C95.0918 5.844 94.6368 5.942 94.2168 6.138C93.7968 6.32 93.4258 6.579 93.1038 6.915C92.7958 7.251 92.5508 7.657 92.3688 8.133C92.1868 8.595 92.0958 9.106 92.0958 9.666V9.918C92.0958 10.492 92.1868 11.017 92.3688 11.493C92.5508 11.955 92.7958 12.354 93.1038 12.69C93.4258 13.026 93.7968 13.285 94.2168 13.467C94.6368 13.649 95.0918 13.74 95.5818 13.74ZM104.891 10.296C104.933 11.332 105.255 12.165 105.857 12.795C106.459 13.425 107.299 13.74 108.377 13.74C108.867 13.74 109.294 13.684 109.658 13.572C110.022 13.46 110.33 13.306 110.582 13.11C110.848 12.914 111.058 12.69 111.212 12.438C111.38 12.172 111.513 11.892 111.611 11.598L113.165 12.018C112.871 12.984 112.325 13.775 111.527 14.391C110.743 14.993 109.679 15.294 108.335 15.294C107.593 15.294 106.907 15.168 106.277 14.916C105.661 14.65 105.129 14.279 104.681 13.803C104.233 13.327 103.883 12.76 103.631 12.102C103.379 11.444 103.253 10.716 103.253 9.918V9.414C103.253 8.686 103.379 8.007 103.631 7.377C103.897 6.747 104.261 6.208 104.723 5.76C105.185 5.298 105.724 4.941 106.34 4.689C106.97 4.423 107.649 4.29 108.377 4.29C109.231 4.29 109.966 4.451 110.582 4.773C111.212 5.081 111.723 5.466 112.115 5.928C112.521 6.39 112.815 6.894 112.997 7.44C113.193 7.986 113.291 8.49 113.291 8.952V10.296H104.891ZM108.377 5.844C107.915 5.844 107.481 5.921 107.075 6.075C106.683 6.215 106.333 6.418 106.025 6.684C105.731 6.95 105.486 7.265 105.29 7.629C105.108 7.979 104.989 8.364 104.933 8.784H111.653C111.625 8.336 111.513 7.93 111.317 7.566C111.135 7.202 110.89 6.894 110.582 6.642C110.288 6.39 109.945 6.194 109.553 6.054C109.175 5.914 108.783 5.844 108.377 5.844ZM126.381 9.918C126.381 10.786 126.234 11.556 125.94 12.228C125.66 12.886 125.282 13.446 124.806 13.908C124.33 14.356 123.77 14.699 123.126 14.937C122.496 15.175 121.838 15.294 121.152 15.294C120.452 15.294 119.787 15.175 119.157 14.937C118.527 14.699 117.974 14.356 117.498 13.908C117.022 13.446 116.637 12.886 116.343 12.228C116.063 11.556 115.923 10.786 115.923 9.918V9.666C115.923 8.812 116.063 8.056 116.343 7.398C116.637 6.726 117.022 6.159 117.498 5.697C117.988 5.235 118.548 4.885 119.178 4.647C119.808 4.409 120.466 4.29 121.152 4.29C121.838 4.29 122.496 4.409 123.126 4.647C123.756 4.885 124.309 5.235 124.785 5.697C125.275 6.159 125.66 6.726 125.94 7.398C126.234 8.056 126.381 8.812 126.381 9.666V9.918ZM121.152 13.74C121.656 13.74 122.118 13.656 122.538 13.488C122.972 13.306 123.35 13.047 123.672 12.711C123.994 12.375 124.246 11.976 124.428 11.514C124.61 11.038 124.701 10.506 124.701 9.918V9.666C124.701 9.106 124.61 8.595 124.428 8.133C124.246 7.657 123.994 7.251 123.672 6.915C123.35 6.579 122.972 6.32 122.538 6.138C122.104 5.942 121.642 5.844 121.152 5.844C120.662 5.844 120.2 5.942 119.766 6.138C119.332 6.32 118.954 6.579 118.632 6.915C118.31 7.251 118.058 7.657 117.876 8.133C117.694 8.595 117.603 9.106 117.603 9.666V9.918C117.603 10.506 117.694 11.038 117.876 11.514C118.058 11.976 118.31 12.375 118.632 12.711C118.954 13.047 119.325 13.306 119.745 13.488C120.179 13.656 120.648 13.74 121.152 13.74ZM130.671 19.2H129.033V4.584H130.671V6.222H130.923C131.287 5.592 131.791 5.116 132.435 4.794C133.079 4.458 133.779 4.29 134.535 4.29C135.179 4.29 135.788 4.409 136.362 4.647C136.936 4.885 137.44 5.228 137.874 5.676C138.322 6.124 138.672 6.677 138.924 7.335C139.19 7.993 139.323 8.742 139.323 9.582V10.002C139.323 10.856 139.197 11.612 138.945 12.27C138.693 12.928 138.343 13.481 137.895 13.929C137.461 14.377 136.95 14.72 136.362 14.958C135.774 15.182 135.151 15.294 134.493 15.294C134.157 15.294 133.814 15.252 133.464 15.168C133.114 15.098 132.778 14.986 132.456 14.832C132.148 14.664 131.861 14.468 131.595 14.244C131.329 14.006 131.105 13.726 130.923 13.404H130.671V19.2ZM134.157 13.74C134.661 13.74 135.123 13.656 135.543 13.488C135.963 13.306 136.327 13.054 136.635 12.732C136.957 12.41 137.202 12.018 137.37 11.556C137.552 11.094 137.643 10.576 137.643 10.002V9.582C137.643 9.022 137.552 8.518 137.37 8.07C137.202 7.608 136.957 7.216 136.635 6.894C136.327 6.558 135.956 6.299 135.522 6.117C135.102 5.935 134.647 5.844 134.157 5.844C133.667 5.844 133.212 5.942 132.792 6.138C132.372 6.32 132.001 6.579 131.679 6.915C131.371 7.251 131.126 7.657 130.944 8.133C130.762 8.595 130.671 9.106 130.671 9.666V9.918C130.671 10.492 130.762 11.017 130.944 11.493C131.126 11.955 131.371 12.354 131.679 12.69C132.001 13.026 132.372 13.285 132.792 13.467C133.212 13.649 133.667 13.74 134.157 13.74ZM142.269 13.488H146.049V1.812H142.395V0.299999H147.687V13.488H151.467V15H142.269V13.488ZM156.325 10.296C156.367 11.332 156.689 12.165 157.291 12.795C157.893 13.425 158.733 13.74 159.811 13.74C160.301 13.74 160.728 13.684 161.092 13.572C161.456 13.46 161.764 13.306 162.016 13.11C162.282 12.914 162.492 12.69 162.646 12.438C162.814 12.172 162.947 11.892 163.045 11.598L164.599 12.018C164.305 12.984 163.759 13.775 162.961 14.391C162.177 14.993 161.113 15.294 159.769 15.294C159.027 15.294 158.341 15.168 157.711 14.916C157.095 14.65 156.563 14.279 156.115 13.803C155.667 13.327 155.317 12.76 155.065 12.102C154.813 11.444 154.687 10.716 154.687 9.918V9.414C154.687 8.686 154.813 8.007 155.065 7.377C155.331 6.747 155.695 6.208 156.157 5.76C156.619 5.298 157.158 4.941 157.774 4.689C158.404 4.423 159.083 4.29 159.811 4.29C160.665 4.29 161.4 4.451 162.016 4.773C162.646 5.081 163.157 5.466 163.549 5.928C163.955 6.39 164.249 6.894 164.431 7.44C164.627 7.986 164.725 8.49 164.725 8.952V10.296H156.325ZM159.811 5.844C159.349 5.844 158.915 5.921 158.509 6.075C158.117 6.215 157.767 6.418 157.459 6.684C157.165 6.95 156.92 7.265 156.724 7.629C156.542 7.979 156.423 8.364 156.367 8.784H163.087C163.059 8.336 162.947 7.93 162.751 7.566C162.569 7.202 162.324 6.894 162.016 6.642C161.722 6.39 161.379 6.194 160.987 6.054C160.609 5.914 160.217 5.844 159.811 5.844ZM184.079 1.476C184.079 1.07 184.219 0.726999 184.499 0.447C184.793 0.152999 185.143 0.00599903 185.549 0.00599903C185.955 0.00599903 186.298 0.152999 186.578 0.447C186.872 0.726999 187.019 1.07 187.019 1.476C187.019 1.882 186.872 2.232 186.578 2.526C186.298 2.806 185.955 2.946 185.549 2.946C185.143 2.946 184.793 2.806 184.499 2.526C184.219 2.232 184.079 1.882 184.079 1.476ZM181.097 13.488H184.751V6.096H181.475V4.584H186.389V13.488H189.791V15H181.097V13.488ZM195.341 15H193.703V4.584H195.341V6.348H195.593C196.237 4.976 197.357 4.29 198.953 4.29C200.157 4.29 201.116 4.668 201.83 5.424C202.544 6.166 202.901 7.286 202.901 8.784V15H201.263V9.12C201.263 8.028 201.018 7.209 200.528 6.663C200.038 6.117 199.373 5.844 198.533 5.844C197.539 5.844 196.755 6.187 196.181 6.873C195.621 7.545 195.341 8.448 195.341 9.582V15ZM208.724 7.272C208.724 7.776 208.934 8.161 209.354 8.427C209.788 8.693 210.572 8.868 211.706 8.952C212.924 9.05 213.848 9.344 214.478 9.834C215.122 10.31 215.444 11.01 215.444 11.934V12.06C215.444 12.564 215.339 13.019 215.129 13.425C214.933 13.817 214.653 14.153 214.289 14.433C213.939 14.713 213.505 14.923 212.987 15.063C212.483 15.217 211.93 15.294 211.328 15.294C210.516 15.294 209.816 15.189 209.228 14.979C208.654 14.755 208.171 14.468 207.779 14.118C207.401 13.754 207.114 13.348 206.918 12.9C206.722 12.438 206.61 11.976 206.582 11.514L208.136 11.136C208.206 11.934 208.514 12.578 209.06 13.068C209.606 13.544 210.334 13.782 211.244 13.782C212.014 13.782 212.63 13.635 213.092 13.341C213.568 13.033 213.806 12.606 213.806 12.06C213.806 11.472 213.575 11.052 213.113 10.8C212.651 10.548 211.902 10.387 210.866 10.317C209.662 10.233 208.738 9.953 208.094 9.477C207.45 9.001 207.128 8.308 207.128 7.398V7.272C207.128 6.782 207.233 6.355 207.443 5.991C207.653 5.613 207.933 5.298 208.283 5.046C208.647 4.794 209.053 4.605 209.501 4.479C209.949 4.353 210.418 4.29 210.908 4.29C211.594 4.29 212.196 4.388 212.714 4.584C213.232 4.766 213.666 5.011 214.016 5.319C214.366 5.613 214.632 5.956 214.814 6.348C215.01 6.74 215.136 7.132 215.192 7.524L213.638 7.902C213.568 7.23 213.295 6.705 212.819 6.327C212.357 5.949 211.748 5.76 210.992 5.76C210.698 5.76 210.411 5.795 210.131 5.865C209.865 5.921 209.627 6.012 209.417 6.138C209.207 6.264 209.039 6.425 208.913 6.621C208.787 6.803 208.724 7.02 208.724 7.272ZM220.68 19.2H219.042V4.584H220.68V6.222H220.932C221.296 5.592 221.8 5.116 222.444 4.794C223.088 4.458 223.788 4.29 224.544 4.29C225.188 4.29 225.797 4.409 226.371 4.647C226.945 4.885 227.449 5.228 227.883 5.676C228.331 6.124 228.681 6.677 228.933 7.335C229.199 7.993 229.332 8.742 229.332 9.582V10.002C229.332 10.856 229.206 11.612 228.954 12.27C228.702 12.928 228.352 13.481 227.904 13.929C227.47 14.377 226.959 14.72 226.371 14.958C225.783 15.182 225.16 15.294 224.502 15.294C224.166 15.294 223.823 15.252 223.473 15.168C223.123 15.098 222.787 14.986 222.465 14.832C222.157 14.664 221.87 14.468 221.604 14.244C221.338 14.006 221.114 13.726 220.932 13.404H220.68V19.2ZM224.166 13.74C224.67 13.74 225.132 13.656 225.552 13.488C225.972 13.306 226.336 13.054 226.644 12.732C226.966 12.41 227.211 12.018 227.379 11.556C227.561 11.094 227.652 10.576 227.652 10.002V9.582C227.652 9.022 227.561 8.518 227.379 8.07C227.211 7.608 226.966 7.216 226.644 6.894C226.336 6.558 225.965 6.299 225.531 6.117C225.111 5.935 224.656 5.844 224.166 5.844C223.676 5.844 223.221 5.942 222.801 6.138C222.381 6.32 222.01 6.579 221.688 6.915C221.38 7.251 221.135 7.657 220.953 8.133C220.771 8.595 220.68 9.106 220.68 9.666V9.918C220.68 10.492 220.771 11.017 220.953 11.493C221.135 11.955 221.38 12.354 221.688 12.69C222.01 13.026 222.381 13.285 222.801 13.467C223.221 13.649 223.676 13.74 224.166 13.74ZM235.512 1.476C235.512 1.07 235.652 0.726999 235.932 0.447C236.226 0.152999 236.576 0.00599903 236.982 0.00599903C237.388 0.00599903 237.731 0.152999 238.011 0.447C238.305 0.726999 238.452 1.07 238.452 1.476C238.452 1.882 238.305 2.232 238.011 2.526C237.731 2.806 237.388 2.946 236.982 2.946C236.576 2.946 236.226 2.806 235.932 2.526C235.652 2.232 235.512 1.882 235.512 1.476ZM232.53 13.488H236.184V6.096H232.908V4.584H237.822V13.488H241.224V15H232.53V13.488ZM244.549 4.584H248.329V5.97H248.581C248.847 5.396 249.225 4.976 249.715 4.71C250.205 4.43 250.765 4.29 251.395 4.29C252.445 4.29 253.292 4.633 253.936 5.319C254.58 6.005 254.923 7.006 254.965 8.322L253.243 8.574C253.243 7.608 253.012 6.915 252.55 6.495C252.088 6.061 251.521 5.844 250.849 5.844C250.415 5.844 250.037 5.928 249.715 6.096C249.407 6.264 249.148 6.495 248.938 6.789C248.728 7.083 248.574 7.426 248.476 7.818C248.378 8.21 248.329 8.63 248.329 9.078V13.488H250.975V15H244.297V13.488H246.691V6.096H244.549V4.584ZM259.192 10.296C259.234 11.332 259.556 12.165 260.158 12.795C260.76 13.425 261.6 13.74 262.678 13.74C263.168 13.74 263.595 13.684 263.959 13.572C264.323 13.46 264.631 13.306 264.883 13.11C265.149 12.914 265.359 12.69 265.513 12.438C265.681 12.172 265.814 11.892 265.912 11.598L267.466 12.018C267.172 12.984 266.626 13.775 265.828 14.391C265.044 14.993 263.98 15.294 262.636 15.294C261.894 15.294 261.208 15.168 260.578 14.916C259.962 14.65 259.43 14.279 258.982 13.803C258.534 13.327 258.184 12.76 257.932 12.102C257.68 11.444 257.554 10.716 257.554 9.918V9.414C257.554 8.686 257.68 8.007 257.932 7.377C258.198 6.747 258.562 6.208 259.024 5.76C259.486 5.298 260.025 4.941 260.641 4.689C261.271 4.423 261.95 4.29 262.678 4.29C263.532 4.29 264.267 4.451 264.883 4.773C265.513 5.081 266.024 5.466 266.416 5.928C266.822 6.39 267.116 6.894 267.298 7.44C267.494 7.986 267.592 8.49 267.592 8.952V10.296H259.192ZM262.678 5.844C262.216 5.844 261.782 5.921 261.376 6.075C260.984 6.215 260.634 6.418 260.326 6.684C260.032 6.95 259.787 7.265 259.591 7.629C259.409 7.979 259.29 8.364 259.234 8.784H265.954C265.926 8.336 265.814 7.93 265.618 7.566C265.436 7.202 265.191 6.894 264.883 6.642C264.589 6.39 264.246 6.194 263.854 6.054C263.476 5.914 263.084 5.844 262.678 5.844ZM278.917 13.404H278.665C278.497 13.726 278.28 14.006 278.014 14.244C277.762 14.482 277.482 14.678 277.174 14.832C276.88 14.986 276.565 15.098 276.229 15.168C275.893 15.252 275.571 15.294 275.263 15.294C274.563 15.294 273.912 15.175 273.31 14.937C272.708 14.699 272.176 14.356 271.714 13.908C271.266 13.46 270.909 12.907 270.643 12.249C270.391 11.577 270.265 10.814 270.265 9.96V9.624C270.265 8.784 270.398 8.035 270.664 7.377C270.93 6.705 271.287 6.145 271.735 5.697C272.183 5.235 272.708 4.885 273.31 4.647C273.912 4.409 274.549 4.29 275.221 4.29C275.935 4.29 276.6 4.451 277.216 4.773C277.846 5.081 278.329 5.564 278.665 6.222H278.917V0.299999H280.555V15H278.917V13.404ZM275.431 13.74C275.921 13.74 276.376 13.649 276.796 13.467C277.216 13.285 277.58 13.026 277.888 12.69C278.21 12.354 278.462 11.955 278.644 11.493C278.826 11.017 278.917 10.492 278.917 9.918V9.666C278.917 9.106 278.826 8.595 278.644 8.133C278.462 7.657 278.21 7.251 277.888 6.915C277.58 6.579 277.209 6.32 276.775 6.138C276.355 5.942 275.907 5.844 275.431 5.844C274.941 5.844 274.479 5.935 274.045 6.117C273.625 6.299 273.254 6.558 272.932 6.894C272.624 7.23 272.379 7.629 272.197 8.091C272.029 8.553 271.945 9.064 271.945 9.624V9.96C271.945 10.548 272.029 11.073 272.197 11.535C272.379 11.997 272.624 12.396 272.932 12.732C273.254 13.054 273.625 13.306 274.045 13.488C274.465 13.656 274.927 13.74 275.431 13.74ZM297.83 15H296.192V0.299999H297.83V6.222H298.082C298.446 5.592 298.95 5.116 299.594 4.794C300.238 4.458 300.938 4.29 301.694 4.29C302.338 4.29 302.947 4.409 303.521 4.647C304.095 4.885 304.599 5.228 305.033 5.676C305.481 6.124 305.831 6.677 306.083 7.335C306.349 7.993 306.482 8.742 306.482 9.582V10.002C306.482 10.856 306.356 11.612 306.104 12.27C305.852 12.928 305.502 13.481 305.054 13.929C304.62 14.377 304.109 14.72 303.521 14.958C302.933 15.182 302.31 15.294 301.652 15.294C301.316 15.294 300.973 15.252 300.623 15.168C300.273 15.098 299.937 14.986 299.615 14.832C299.307 14.664 299.02 14.468 298.754 14.244C298.488 14.006 298.264 13.726 298.082 13.404H297.83V15ZM301.316 13.74C301.82 13.74 302.282 13.656 302.702 13.488C303.122 13.306 303.486 13.054 303.794 12.732C304.116 12.41 304.361 12.018 304.529 11.556C304.711 11.094 304.802 10.576 304.802 10.002V9.582C304.802 9.022 304.711 8.518 304.529 8.07C304.361 7.608 304.116 7.216 303.794 6.894C303.486 6.558 303.115 6.299 302.681 6.117C302.261 5.935 301.806 5.844 301.316 5.844C300.826 5.844 300.371 5.942 299.951 6.138C299.531 6.32 299.16 6.579 298.838 6.915C298.53 7.251 298.285 7.657 298.103 8.133C297.921 8.595 297.83 9.106 297.83 9.666V9.918C297.83 10.492 297.921 11.017 298.103 11.493C298.285 11.955 298.53 12.354 298.838 12.69C299.16 13.026 299.531 13.285 299.951 13.467C300.371 13.649 300.826 13.74 301.316 13.74ZM316.989 13.11H316.737C316.401 13.782 315.96 14.314 315.414 14.706C314.868 15.098 314.175 15.294 313.335 15.294C312.761 15.294 312.229 15.196 311.739 15C311.263 14.818 310.85 14.538 310.5 14.16C310.164 13.782 309.898 13.313 309.702 12.753C309.52 12.193 309.429 11.542 309.429 10.8V4.584H311.067V10.59C311.067 11.682 311.291 12.48 311.739 12.984C312.187 13.488 312.873 13.74 313.797 13.74C314.791 13.74 315.568 13.404 316.128 12.732C316.702 12.046 316.989 11.136 316.989 10.002V4.584H318.627V17.562C318.627 18.038 318.473 18.43 318.165 18.738C317.871 19.046 317.486 19.2 317.01 19.2H311.067V17.688H316.422C316.8 17.688 316.989 17.478 316.989 17.058V13.11ZM342.705 13.236H342.453C342.117 13.936 341.648 14.454 341.046 14.79C340.458 15.126 339.835 15.294 339.177 15.294C338.491 15.294 337.854 15.182 337.266 14.958C336.678 14.72 336.16 14.377 335.712 13.929C335.278 13.467 334.935 12.907 334.683 12.249C334.431 11.591 334.305 10.828 334.305 9.96V9.624C334.305 8.77 334.431 8.014 334.683 7.356C334.935 6.698 335.278 6.145 335.712 5.697C336.16 5.235 336.678 4.885 337.266 4.647C337.854 4.409 338.477 4.29 339.135 4.29C339.849 4.29 340.493 4.451 341.067 4.773C341.655 5.081 342.117 5.564 342.453 6.222H342.705V4.584H344.343V12.858C344.343 13.278 344.532 13.488 344.91 13.488H345.435V15H344.322C343.846 15 343.454 14.846 343.146 14.538C342.852 14.23 342.705 13.838 342.705 13.362V13.236ZM339.345 13.74C339.835 13.74 340.283 13.649 340.689 13.467C341.109 13.285 341.466 13.026 341.76 12.69C342.054 12.354 342.285 11.955 342.453 11.493C342.621 11.017 342.705 10.492 342.705 9.918V9.666C342.705 9.106 342.621 8.595 342.453 8.133C342.285 7.657 342.047 7.251 341.739 6.915C341.445 6.579 341.088 6.32 340.668 6.138C340.262 5.942 339.821 5.844 339.345 5.844C338.855 5.844 338.407 5.935 338.001 6.117C337.595 6.299 337.238 6.558 336.93 6.894C336.636 7.216 336.405 7.615 336.237 8.091C336.069 8.553 335.985 9.064 335.985 9.624V9.96C335.985 11.15 336.293 12.081 336.909 12.753C337.539 13.411 338.351 13.74 339.345 13.74ZM362.122 15H360.484V0.299999H362.122V6.222H362.374C362.738 5.592 363.242 5.116 363.886 4.794C364.53 4.458 365.23 4.29 365.986 4.29C366.63 4.29 367.239 4.409 367.813 4.647C368.387 4.885 368.891 5.228 369.325 5.676C369.773 6.124 370.123 6.677 370.375 7.335C370.641 7.993 370.774 8.742 370.774 9.582V10.002C370.774 10.856 370.648 11.612 370.396 12.27C370.144 12.928 369.794 13.481 369.346 13.929C368.912 14.377 368.401 14.72 367.813 14.958C367.225 15.182 366.602 15.294 365.944 15.294C365.608 15.294 365.265 15.252 364.915 15.168C364.565 15.098 364.229 14.986 363.907 14.832C363.599 14.664 363.312 14.468 363.046 14.244C362.78 14.006 362.556 13.726 362.374 13.404H362.122V15ZM365.608 13.74C366.112 13.74 366.574 13.656 366.994 13.488C367.414 13.306 367.778 13.054 368.086 12.732C368.408 12.41 368.653 12.018 368.821 11.556C369.003 11.094 369.094 10.576 369.094 10.002V9.582C369.094 9.022 369.003 8.518 368.821 8.07C368.653 7.608 368.408 7.216 368.086 6.894C367.778 6.558 367.407 6.299 366.973 6.117C366.553 5.935 366.098 5.844 365.608 5.844C365.118 5.844 364.663 5.942 364.243 6.138C363.823 6.32 363.452 6.579 363.13 6.915C362.822 7.251 362.577 7.657 362.395 8.133C362.213 8.595 362.122 9.106 362.122 9.666V9.918C362.122 10.492 362.213 11.017 362.395 11.493C362.577 11.955 362.822 12.354 363.13 12.69C363.452 13.026 363.823 13.285 364.243 13.467C364.663 13.649 365.118 13.74 365.608 13.74ZM381.281 13.236H381.029C380.693 13.936 380.224 14.454 379.622 14.79C379.034 15.126 378.411 15.294 377.753 15.294C377.067 15.294 376.43 15.182 375.842 14.958C375.254 14.72 374.736 14.377 374.288 13.929C373.854 13.467 373.511 12.907 373.259 12.249C373.007 11.591 372.881 10.828 372.881 9.96V9.624C372.881 8.77 373.007 8.014 373.259 7.356C373.511 6.698 373.854 6.145 374.288 5.697C374.736 5.235 375.254 4.885 375.842 4.647C376.43 4.409 377.053 4.29 377.711 4.29C378.425 4.29 379.069 4.451 379.643 4.773C380.231 5.081 380.693 5.564 381.029 6.222H381.281V4.584H382.919V12.858C382.919 13.278 383.108 13.488 383.486 13.488H384.011V15H382.898C382.422 15 382.03 14.846 381.722 14.538C381.428 14.23 381.281 13.838 381.281 13.362V13.236ZM377.921 13.74C378.411 13.74 378.859 13.649 379.265 13.467C379.685 13.285 380.042 13.026 380.336 12.69C380.63 12.354 380.861 11.955 381.029 11.493C381.197 11.017 381.281 10.492 381.281 9.918V9.666C381.281 9.106 381.197 8.595 381.029 8.133C380.861 7.657 380.623 7.251 380.315 6.915C380.021 6.579 379.664 6.32 379.244 6.138C378.838 5.942 378.397 5.844 377.921 5.844C377.431 5.844 376.983 5.935 376.577 6.117C376.171 6.299 375.814 6.558 375.506 6.894C375.212 7.216 374.981 7.615 374.813 8.091C374.645 8.553 374.561 9.064 374.561 9.624V9.96C374.561 11.15 374.869 12.081 375.485 12.753C376.115 13.411 376.927 13.74 377.921 13.74ZM394.643 13.404H394.391C394.223 13.726 394.006 14.006 393.74 14.244C393.488 14.482 393.208 14.678 392.9 14.832C392.606 14.986 392.291 15.098 391.955 15.168C391.619 15.252 391.297 15.294 390.989 15.294C390.289 15.294 389.638 15.175 389.036 14.937C388.434 14.699 387.902 14.356 387.44 13.908C386.992 13.46 386.635 12.907 386.369 12.249C386.117 11.577 385.991 10.814 385.991 9.96V9.624C385.991 8.784 386.124 8.035 386.39 7.377C386.656 6.705 387.013 6.145 387.461 5.697C387.909 5.235 388.434 4.885 389.036 4.647C389.638 4.409 390.275 4.29 390.947 4.29C391.661 4.29 392.326 4.451 392.942 4.773C393.572 5.081 394.055 5.564 394.391 6.222H394.643V0.299999H396.281V15H394.643V13.404ZM391.157 13.74C391.647 13.74 392.102 13.649 392.522 13.467C392.942 13.285 393.306 13.026 393.614 12.69C393.936 12.354 394.188 11.955 394.37 11.493C394.552 11.017 394.643 10.492 394.643 9.918V9.666C394.643 9.106 394.552 8.595 394.37 8.133C394.188 7.657 393.936 7.251 393.614 6.915C393.306 6.579 392.935 6.32 392.501 6.138C392.081 5.942 391.633 5.844 391.157 5.844C390.667 5.844 390.205 5.935 389.771 6.117C389.351 6.299 388.98 6.558 388.658 6.894C388.35 7.23 388.105 7.629 387.923 8.091C387.755 8.553 387.671 9.064 387.671 9.624V9.96C387.671 10.548 387.755 11.073 387.923 11.535C388.105 11.997 388.35 12.396 388.658 12.732C388.98 13.054 389.351 13.306 389.771 13.488C390.191 13.656 390.653 13.74 391.157 13.74ZM406.997 13.236H406.745C406.409 13.936 405.94 14.454 405.338 14.79C404.75 15.126 404.127 15.294 403.469 15.294C402.783 15.294 402.146 15.182 401.558 14.958C400.97 14.72 400.452 14.377 400.004 13.929C399.57 13.467 399.227 12.907 398.975 12.249C398.723 11.591 398.597 10.828 398.597 9.96V9.624C398.597 8.77 398.723 8.014 398.975 7.356C399.227 6.698 399.57 6.145 400.004 5.697C400.452 5.235 400.97 4.885 401.558 4.647C402.146 4.409 402.769 4.29 403.427 4.29C404.141 4.29 404.785 4.451 405.359 4.773C405.947 5.081 406.409 5.564 406.745 6.222H406.997V4.584H408.635V12.858C408.635 13.278 408.824 13.488 409.202 13.488H409.727V15H408.614C408.138 15 407.746 14.846 407.438 14.538C407.144 14.23 406.997 13.838 406.997 13.362V13.236ZM403.637 13.74C404.127 13.74 404.575 13.649 404.981 13.467C405.401 13.285 405.758 13.026 406.052 12.69C406.346 12.354 406.577 11.955 406.745 11.493C406.913 11.017 406.997 10.492 406.997 9.918V9.666C406.997 9.106 406.913 8.595 406.745 8.133C406.577 7.657 406.339 7.251 406.031 6.915C405.737 6.579 405.38 6.32 404.96 6.138C404.554 5.942 404.113 5.844 403.637 5.844C403.147 5.844 402.699 5.935 402.293 6.117C401.887 6.299 401.53 6.558 401.222 6.894C400.928 7.216 400.697 7.615 400.529 8.091C400.361 8.553 400.277 9.064 400.277 9.624V9.96C400.277 11.15 400.585 12.081 401.201 12.753C401.831 13.411 402.643 13.74 403.637 13.74ZM414.459 7.272C414.459 7.776 414.669 8.161 415.089 8.427C415.523 8.693 416.307 8.868 417.441 8.952C418.659 9.05 419.583 9.344 420.213 9.834C420.857 10.31 421.179 11.01 421.179 11.934V12.06C421.179 12.564 421.074 13.019 420.864 13.425C420.668 13.817 420.388 14.153 420.024 14.433C419.674 14.713 419.24 14.923 418.722 15.063C418.218 15.217 417.665 15.294 417.063 15.294C416.251 15.294 415.551 15.189 414.963 14.979C414.389 14.755 413.906 14.468 413.514 14.118C413.136 13.754 412.849 13.348 412.653 12.9C412.457 12.438 412.345 11.976 412.317 11.514L413.871 11.136C413.941 11.934 414.249 12.578 414.795 13.068C415.341 13.544 416.069 13.782 416.979 13.782C417.749 13.782 418.365 13.635 418.827 13.341C419.303 13.033 419.541 12.606 419.541 12.06C419.541 11.472 419.31 11.052 418.848 10.8C418.386 10.548 417.637 10.387 416.601 10.317C415.397 10.233 414.473 9.953 413.829 9.477C413.185 9.001 412.863 8.308 412.863 7.398V7.272C412.863 6.782 412.968 6.355 413.178 5.991C413.388 5.613 413.668 5.298 414.018 5.046C414.382 4.794 414.788 4.605 415.236 4.479C415.684 4.353 416.153 4.29 416.643 4.29C417.329 4.29 417.931 4.388 418.449 4.584C418.967 4.766 419.401 5.011 419.751 5.319C420.101 5.613 420.367 5.956 420.549 6.348C420.745 6.74 420.871 7.132 420.927 7.524L419.373 7.902C419.303 7.23 419.03 6.705 418.554 6.327C418.092 5.949 417.483 5.76 416.727 5.76C416.433 5.76 416.146 5.795 415.866 5.865C415.6 5.921 415.362 6.012 415.152 6.138C414.942 6.264 414.774 6.425 414.648 6.621C414.522 6.803 414.459 7.02 414.459 7.272ZM427.317 7.272C427.317 7.776 427.527 8.161 427.947 8.427C428.381 8.693 429.165 8.868 430.299 8.952C431.517 9.05 432.441 9.344 433.071 9.834C433.715 10.31 434.037 11.01 434.037 11.934V12.06C434.037 12.564 433.932 13.019 433.722 13.425C433.526 13.817 433.246 14.153 432.882 14.433C432.532 14.713 432.098 14.923 431.58 15.063C431.076 15.217 430.523 15.294 429.921 15.294C429.109 15.294 428.409 15.189 427.821 14.979C427.247 14.755 426.764 14.468 426.372 14.118C425.994 13.754 425.707 13.348 425.511 12.9C425.315 12.438 425.203 11.976 425.175 11.514L426.729 11.136C426.799 11.934 427.107 12.578 427.653 13.068C428.199 13.544 428.927 13.782 429.837 13.782C430.607 13.782 431.223 13.635 431.685 13.341C432.161 13.033 432.399 12.606 432.399 12.06C432.399 11.472 432.168 11.052 431.706 10.8C431.244 10.548 430.495 10.387 429.459 10.317C428.255 10.233 427.331 9.953 426.687 9.477C426.043 9.001 425.721 8.308 425.721 7.398V7.272C425.721 6.782 425.826 6.355 426.036 5.991C426.246 5.613 426.526 5.298 426.876 5.046C427.24 4.794 427.646 4.605 428.094 4.479C428.542 4.353 429.011 4.29 429.501 4.29C430.187 4.29 430.789 4.388 431.307 4.584C431.825 4.766 432.259 5.011 432.609 5.319C432.959 5.613 433.225 5.956 433.407 6.348C433.603 6.74 433.729 7.132 433.785 7.524L432.231 7.902C432.161 7.23 431.888 6.705 431.412 6.327C430.95 5.949 430.341 5.76 429.585 5.76C429.291 5.76 429.004 5.795 428.724 5.865C428.458 5.921 428.22 6.012 428.01 6.138C427.8 6.264 427.632 6.425 427.506 6.621C427.38 6.803 427.317 7.02 427.317 7.272ZM453.034 7.272C453.034 7.776 453.244 8.161 453.664 8.427C454.098 8.693 454.882 8.868 456.016 8.952C457.234 9.05 458.158 9.344 458.788 9.834C459.432 10.31 459.754 11.01 459.754 11.934V12.06C459.754 12.564 459.649 13.019 459.439 13.425C459.243 13.817 458.963 14.153 458.599 14.433C458.249 14.713 457.815 14.923 457.297 15.063C456.793 15.217 456.24 15.294 455.638 15.294C454.826 15.294 454.126 15.189 453.538 14.979C452.964 14.755 452.481 14.468 452.089 14.118C451.711 13.754 451.424 13.348 451.228 12.9C451.032 12.438 450.92 11.976 450.892 11.514L452.446 11.136C452.516 11.934 452.824 12.578 453.37 13.068C453.916 13.544 454.644 13.782 455.554 13.782C456.324 13.782 456.94 13.635 457.402 13.341C457.878 13.033 458.116 12.606 458.116 12.06C458.116 11.472 457.885 11.052 457.423 10.8C456.961 10.548 456.212 10.387 455.176 10.317C453.972 10.233 453.048 9.953 452.404 9.477C451.76 9.001 451.438 8.308 451.438 7.398V7.272C451.438 6.782 451.543 6.355 451.753 5.991C451.963 5.613 452.243 5.298 452.593 5.046C452.957 4.794 453.363 4.605 453.811 4.479C454.259 4.353 454.728 4.29 455.218 4.29C455.904 4.29 456.506 4.388 457.024 4.584C457.542 4.766 457.976 5.011 458.326 5.319C458.676 5.613 458.942 5.956 459.124 6.348C459.32 6.74 459.446 7.132 459.502 7.524L457.948 7.902C457.878 7.23 457.605 6.705 457.129 6.327C456.667 5.949 456.058 5.76 455.302 5.76C455.008 5.76 454.721 5.795 454.441 5.865C454.175 5.921 453.937 6.012 453.727 6.138C453.517 6.264 453.349 6.425 453.223 6.621C453.097 6.803 453.034 7.02 453.034 7.272ZM473.473 11.304C473.361 11.878 473.165 12.41 472.885 12.9C472.619 13.39 472.276 13.817 471.856 14.181C471.436 14.531 470.946 14.804 470.386 15C469.826 15.196 469.203 15.294 468.517 15.294C467.789 15.294 467.096 15.175 466.438 14.937C465.794 14.699 465.227 14.356 464.737 13.908C464.247 13.446 463.855 12.886 463.561 12.228C463.281 11.57 463.141 10.814 463.141 9.96V9.708C463.141 8.868 463.281 8.112 463.561 7.44C463.855 6.768 464.247 6.201 464.737 5.739C465.227 5.277 465.794 4.92 466.438 4.668C467.096 4.416 467.789 4.29 468.517 4.29C469.175 4.29 469.784 4.388 470.344 4.584C470.904 4.78 471.394 5.06 471.814 5.424C472.248 5.774 472.598 6.194 472.864 6.684C473.144 7.174 473.333 7.706 473.431 8.28L471.793 8.658C471.751 8.294 471.646 7.944 471.478 7.608C471.324 7.258 471.107 6.957 470.827 6.705C470.561 6.439 470.232 6.229 469.84 6.075C469.448 5.921 468.993 5.844 468.475 5.844C467.971 5.844 467.495 5.942 467.047 6.138C466.613 6.32 466.228 6.586 465.892 6.936C465.556 7.272 465.29 7.678 465.094 8.154C464.912 8.63 464.821 9.148 464.821 9.708V9.96C464.821 10.548 464.912 11.08 465.094 11.556C465.29 12.018 465.556 12.41 465.892 12.732C466.228 13.054 466.62 13.306 467.068 13.488C467.516 13.656 467.999 13.74 468.517 13.74C469.035 13.74 469.483 13.663 469.861 13.509C470.253 13.341 470.582 13.131 470.848 12.879C471.128 12.613 471.345 12.312 471.499 11.976C471.667 11.64 471.779 11.29 471.835 10.926L473.473 11.304ZM479.822 1.476C479.822 1.07 479.962 0.726999 480.242 0.447C480.536 0.152999 480.886 0.00599903 481.292 0.00599903C481.698 0.00599903 482.041 0.152999 482.321 0.447C482.615 0.726999 482.762 1.07 482.762 1.476C482.762 1.882 482.615 2.232 482.321 2.526C482.041 2.806 481.698 2.946 481.292 2.946C480.886 2.946 480.536 2.806 480.242 2.526C479.962 2.232 479.822 1.882 479.822 1.476ZM476.84 13.488H480.494V6.096H477.218V4.584H482.132V13.488H485.534V15H476.84V13.488ZM490.643 10.296C490.685 11.332 491.007 12.165 491.609 12.795C492.211 13.425 493.051 13.74 494.129 13.74C494.619 13.74 495.046 13.684 495.41 13.572C495.774 13.46 496.082 13.306 496.334 13.11C496.6 12.914 496.81 12.69 496.964 12.438C497.132 12.172 497.265 11.892 497.363 11.598L498.917 12.018C498.623 12.984 498.077 13.775 497.279 14.391C496.495 14.993 495.431 15.294 494.087 15.294C493.345 15.294 492.659 15.168 492.029 14.916C491.413 14.65 490.881 14.279 490.433 13.803C489.985 13.327 489.635 12.76 489.383 12.102C489.131 11.444 489.005 10.716 489.005 9.918V9.414C489.005 8.686 489.131 8.007 489.383 7.377C489.649 6.747 490.013 6.208 490.475 5.76C490.937 5.298 491.476 4.941 492.092 4.689C492.722 4.423 493.401 4.29 494.129 4.29C494.983 4.29 495.718 4.451 496.334 4.773C496.964 5.081 497.475 5.466 497.867 5.928C498.273 6.39 498.567 6.894 498.749 7.44C498.945 7.986 499.043 8.49 499.043 8.952V10.296H490.643ZM494.129 5.844C493.667 5.844 493.233 5.921 492.827 6.075C492.435 6.215 492.085 6.418 491.777 6.684C491.483 6.95 491.238 7.265 491.042 7.629C490.86 7.979 490.741 8.364 490.685 8.784H497.405C497.377 8.336 497.265 7.93 497.069 7.566C496.887 7.202 496.642 6.894 496.334 6.642C496.04 6.39 495.697 6.194 495.305 6.054C494.927 5.914 494.535 5.844 494.129 5.844ZM503.943 15H502.305V4.584H503.943V6.348H504.195C504.839 4.976 505.959 4.29 507.555 4.29C508.759 4.29 509.718 4.668 510.432 5.424C511.146 6.166 511.503 7.286 511.503 8.784V15H509.865V9.12C509.865 8.028 509.62 7.209 509.13 6.663C508.64 6.117 507.975 5.844 507.135 5.844C506.141 5.844 505.357 6.187 504.783 6.873C504.223 7.545 503.943 8.448 503.943 9.582V15ZM514.806 4.584H518.082V0.299999H519.72V4.584H523.752V6.096H519.72V12.858C519.72 13.278 519.909 13.488 520.287 13.488H523.248V15H519.699C519.223 15 518.831 14.846 518.523 14.538C518.229 14.23 518.082 13.838 518.082 13.362V6.096H514.806V4.584ZM531.255 1.476C531.255 1.07 531.395 0.726999 531.675 0.447C531.969 0.152999 532.319 0.00599903 532.725 0.00599903C533.131 0.00599903 533.474 0.152999 533.754 0.447C534.048 0.726999 534.195 1.07 534.195 1.476C534.195 1.882 534.048 2.232 533.754 2.526C533.474 2.806 533.131 2.946 532.725 2.946C532.319 2.946 531.969 2.806 531.675 2.526C531.395 2.232 531.255 1.882 531.255 1.476ZM528.273 13.488H531.927V6.096H528.651V4.584H533.565V13.488H536.967V15H528.273V13.488ZM543.043 7.272C543.043 7.776 543.253 8.161 543.673 8.427C544.107 8.693 544.891 8.868 546.025 8.952C547.243 9.05 548.167 9.344 548.797 9.834C549.441 10.31 549.763 11.01 549.763 11.934V12.06C549.763 12.564 549.658 13.019 549.448 13.425C549.252 13.817 548.972 14.153 548.608 14.433C548.258 14.713 547.824 14.923 547.306 15.063C546.802 15.217 546.249 15.294 545.647 15.294C544.835 15.294 544.135 15.189 543.547 14.979C542.973 14.755 542.49 14.468 542.098 14.118C541.72 13.754 541.433 13.348 541.237 12.9C541.041 12.438 540.929 11.976 540.901 11.514L542.455 11.136C542.525 11.934 542.833 12.578 543.379 13.068C543.925 13.544 544.653 13.782 545.563 13.782C546.333 13.782 546.949 13.635 547.411 13.341C547.887 13.033 548.125 12.606 548.125 12.06C548.125 11.472 547.894 11.052 547.432 10.8C546.97 10.548 546.221 10.387 545.185 10.317C543.981 10.233 543.057 9.953 542.413 9.477C541.769 9.001 541.447 8.308 541.447 7.398V7.272C541.447 6.782 541.552 6.355 541.762 5.991C541.972 5.613 542.252 5.298 542.602 5.046C542.966 4.794 543.372 4.605 543.82 4.479C544.268 4.353 544.737 4.29 545.227 4.29C545.913 4.29 546.515 4.388 547.033 4.584C547.551 4.766 547.985 5.011 548.335 5.319C548.685 5.613 548.951 5.956 549.133 6.348C549.329 6.74 549.455 7.132 549.511 7.524L547.957 7.902C547.887 7.23 547.614 6.705 547.138 6.327C546.676 5.949 546.067 5.76 545.311 5.76C545.017 5.76 544.73 5.795 544.45 5.865C544.184 5.921 543.946 6.012 543.736 6.138C543.526 6.264 543.358 6.425 543.232 6.621C543.106 6.803 543.043 7.02 543.043 7.272ZM553.381 4.584H556.657V0.299999H558.295V4.584H562.327V6.096H558.295V12.858C558.295 13.278 558.484 13.488 558.862 13.488H561.823V15H558.274C557.798 15 557.406 14.846 557.098 14.538C556.804 14.23 556.657 13.838 556.657 13.362V6.096H553.381V4.584Z" fill="#F0EEF3"/>
</svg>
