<svg width="603" height="64" viewBox="0 0 603 64" fill="none" xmlns="http://www.w3.org/2000/svg">
<path d="M14.75 22H12.23V14.98C12.23 14.46 12.11 14.06 11.87 13.78C11.63 13.5 11.21 13.36 10.61 13.36H4.07V22H1.55V0.999999H9.05C10.13 0.999999 11.07 1.16 11.87 1.48C12.67 1.78 13.33 2.19 13.85 2.71C14.39 3.23 14.79 3.84 15.05 4.54C15.33 5.22 15.47 5.94 15.47 6.7V7.6C15.47 8.38 15.25 9.16 14.81 9.94C14.39 10.72 13.73 11.32 12.83 11.74V12.1C13.43 12.2 13.9 12.44 14.24 12.82C14.58 13.2 14.75 13.74 14.75 14.44V22ZM4.07 11.02H8.75C10.17 11.02 11.22 10.72 11.9 10.12C12.6 9.5 12.95 8.6 12.95 7.42V6.88C12.95 5.82 12.6 4.97 11.9 4.33C11.22 3.67 10.17 3.34 8.75 3.34H4.07V11.02ZM34.7691 12.64H31.8591V22H25.1391C24.1391 22 23.2491 21.86 22.4691 21.58C21.6891 21.3 21.0391 20.92 20.5191 20.44C19.9991 19.94 19.5991 19.36 19.3191 18.7C19.0591 18.02 18.9291 17.29 18.9291 16.51V16.15C18.9291 15.01 19.2691 14.05 19.9491 13.27C20.6291 12.47 21.4691 11.93 22.4691 11.65V11.29C21.4691 11.03 20.6291 10.51 19.9491 9.73C19.2691 8.93 18.9291 7.96 18.9291 6.82V6.46C18.9291 5.68 19.0591 4.96 19.3191 4.3C19.5991 3.62 19.9991 3.04 20.5191 2.56C21.0391 2.08 21.6891 1.7 22.4691 1.42C23.2491 1.14 24.1391 0.999999 25.1391 0.999999H28.9791V3.34H25.3191C24.1391 3.34 23.1791 3.64 22.4391 4.24C21.6991 4.82 21.3291 5.62 21.3291 6.64V6.82C21.3291 7.9 21.6791 8.75 22.3791 9.37C23.0791 9.99 24.0291 10.3 25.2291 10.3H29.3391V7.12H31.8591V10.3H34.7691V12.64ZM29.3391 19.66V12.64H25.2291C24.0291 12.64 23.0791 12.96 22.3791 13.6C21.6791 14.22 21.3291 15.07 21.3291 16.15V16.33C21.3291 17.37 21.6991 18.19 22.4391 18.79C23.1791 19.37 24.1391 19.66 25.3191 19.66H29.3391ZM37.9283 0.999999H44.8283C47.4283 0.999999 49.3283 1.62 50.5283 2.86C51.7283 4.1 52.3283 6.08 52.3283 8.8V14.2C52.3283 16.92 51.7283 18.9 50.5283 20.14C49.3283 21.38 47.4283 22 44.8283 22H37.9283V19.63H39.7283V3.34H37.9283V0.999999ZM44.4683 19.66C45.3883 19.66 46.1783 19.57 46.8383 19.39C47.5183 19.21 48.0783 18.91 48.5183 18.49C48.9583 18.05 49.2783 17.47 49.4783 16.75C49.6983 16.03 49.8083 15.12 49.8083 14.02V8.98C49.8083 7.88 49.6983 6.97 49.4783 6.25C49.2783 5.53 48.9583 4.96 48.5183 4.54C48.0783 4.1 47.5183 3.79 46.8383 3.61C46.1783 3.43 45.3883 3.34 44.4683 3.34H42.2483V19.66H44.4683ZM86.6066 19.72H86.2466C86.0066 20.18 85.6966 20.58 85.3166 20.92C84.9566 21.26 84.5566 21.54 84.1166 21.76C83.6966 21.98 83.2466 22.14 82.7666 22.24C82.2866 22.36 81.8266 22.42 81.3866 22.42C80.3866 22.42 79.4566 22.25 78.5966 21.91C77.7366 21.57 76.9766 21.08 76.3166 20.44C75.6766 19.8 75.1666 19.01 74.7866 18.07C74.4266 17.11 74.2466 16.02 74.2466 14.8V14.32C74.2466 13.12 74.4366 12.05 74.8166 11.11C75.1966 10.15 75.7066 9.35 76.3466 8.71C76.9866 8.05 77.7366 7.55 78.5966 7.21C79.4566 6.87 80.3666 6.7 81.3266 6.7C82.3466 6.7 83.2966 6.93 84.1766 7.39C85.0766 7.83 85.7666 8.52 86.2466 9.46H86.6066V0.999999H88.9466V22H86.6066V19.72ZM81.6266 20.2C82.3266 20.2 82.9766 20.07 83.5766 19.81C84.1766 19.55 84.6966 19.18 85.1366 18.7C85.5966 18.22 85.9566 17.65 86.2166 16.99C86.4766 16.31 86.6066 15.56 86.6066 14.74V14.38C86.6066 13.58 86.4766 12.85 86.2166 12.19C85.9566 11.51 85.5966 10.93 85.1366 10.45C84.6966 9.97 84.1666 9.6 83.5466 9.34C82.9466 9.06 82.3066 8.92 81.6266 8.92C80.9266 8.92 80.2666 9.05 79.6466 9.31C79.0466 9.57 78.5166 9.94 78.0566 10.42C77.6166 10.9 77.2666 11.47 77.0066 12.13C76.7666 12.79 76.6466 13.52 76.6466 14.32V14.8C76.6466 15.64 76.7666 16.39 77.0066 17.05C77.2666 17.71 77.6166 18.28 78.0566 18.76C78.5166 19.22 79.0466 19.58 79.6466 19.84C80.2466 20.08 80.9066 20.2 81.6266 20.2ZM98.0757 2.68C98.0757 2.1 98.2757 1.61 98.6757 1.21C99.0957 0.789999 99.5957 0.579999 100.176 0.579999C100.756 0.579999 101.246 0.789999 101.646 1.21C102.066 1.61 102.276 2.1 102.276 2.68C102.276 3.26 102.066 3.76 101.646 4.18C101.246 4.58 100.756 4.78 100.176 4.78C99.5957 4.78 99.0957 4.58 98.6757 4.18C98.2757 3.76 98.0757 3.26 98.0757 2.68ZM93.8157 19.84H99.0357V9.28H94.3557V7.12H101.376V19.84H106.236V22H93.8157V19.84ZM123.135 19.72H122.775C122.295 20.62 121.635 21.3 120.795 21.76C119.975 22.2 119.075 22.42 118.095 22.42C117.095 22.42 116.155 22.25 115.275 21.91C114.395 21.57 113.615 21.08 112.935 20.44C112.275 19.8 111.745 19.01 111.345 18.07C110.965 17.11 110.775 16.02 110.775 14.8V14.32C110.775 13.12 110.975 12.05 111.375 11.11C111.775 10.15 112.305 9.35 112.965 8.71C113.625 8.05 114.395 7.55 115.275 7.21C116.155 6.87 117.075 6.7 118.035 6.7C119.115 6.7 120.055 6.94 120.855 7.42C121.675 7.88 122.315 8.56 122.775 9.46H123.135V7.12H125.475V25.66C125.475 26.34 125.255 26.9 124.815 27.34C124.395 27.78 123.845 28 123.165 28H113.475V25.84H122.325C122.865 25.84 123.135 25.54 123.135 24.94V19.72ZM118.155 20.2C118.855 20.2 119.505 20.07 120.105 19.81C120.705 19.55 121.225 19.18 121.665 18.7C122.125 18.22 122.485 17.65 122.745 16.99C123.005 16.31 123.135 15.56 123.135 14.74V14.38C123.135 13.58 123.005 12.85 122.745 12.19C122.485 11.51 122.125 10.93 121.665 10.45C121.225 9.97 120.695 9.6 120.075 9.34C119.475 9.06 118.835 8.92 118.155 8.92C117.455 8.92 116.795 9.05 116.175 9.31C115.575 9.57 115.045 9.94 114.585 10.42C114.145 10.9 113.795 11.47 113.535 12.13C113.295 12.79 113.175 13.52 113.175 14.32V14.8C113.175 15.64 113.295 16.39 113.535 17.05C113.795 17.71 114.145 18.28 114.585 18.76C115.045 19.22 115.575 19.58 116.175 19.84C116.775 20.08 117.435 20.2 118.155 20.2ZM134.814 2.68C134.814 2.1 135.014 1.61 135.414 1.21C135.834 0.789999 136.334 0.579999 136.914 0.579999C137.494 0.579999 137.984 0.789999 138.384 1.21C138.804 1.61 139.014 2.1 139.014 2.68C139.014 3.26 138.804 3.76 138.384 4.18C137.984 4.58 137.494 4.78 136.914 4.78C136.334 4.78 135.834 4.58 135.414 4.18C135.014 3.76 134.814 3.26 134.814 2.68ZM130.554 19.84H135.774V9.28H131.094V7.12H138.114V19.84H142.974V22H130.554V19.84ZM148.053 7.12H152.733V0.999999H155.073V7.12H160.833V9.28H155.073V18.94C155.073 19.54 155.343 19.84 155.883 19.84H160.113V22H155.043C154.363 22 153.803 21.78 153.363 21.34C152.943 20.9 152.733 20.34 152.733 19.66V9.28H148.053V7.12ZM177.732 19.48H177.372C176.892 20.48 176.222 21.22 175.362 21.7C174.522 22.18 173.632 22.42 172.692 22.42C171.712 22.42 170.802 22.26 169.962 21.94C169.122 21.6 168.382 21.11 167.742 20.47C167.122 19.81 166.632 19.01 166.272 18.07C165.912 17.13 165.732 16.04 165.732 14.8V14.32C165.732 13.1 165.912 12.02 166.272 11.08C166.632 10.14 167.122 9.35 167.742 8.71C168.382 8.05 169.122 7.55 169.962 7.21C170.802 6.87 171.692 6.7 172.632 6.7C173.652 6.7 174.572 6.93 175.392 7.39C176.232 7.83 176.892 8.52 177.372 9.46H177.732V7.12H180.072V18.94C180.072 19.54 180.342 19.84 180.882 19.84H181.632V22H180.042C179.362 22 178.802 21.78 178.362 21.34C177.942 20.9 177.732 20.34 177.732 19.66V19.48ZM172.932 20.2C173.632 20.2 174.272 20.07 174.852 19.81C175.452 19.55 175.962 19.18 176.382 18.7C176.802 18.22 177.132 17.65 177.372 16.99C177.612 16.31 177.732 15.56 177.732 14.74V14.38C177.732 13.58 177.612 12.85 177.372 12.19C177.132 11.51 176.792 10.93 176.352 10.45C175.932 9.97 175.422 9.6 174.822 9.34C174.242 9.06 173.612 8.92 172.932 8.92C172.232 8.92 171.592 9.05 171.012 9.31C170.432 9.57 169.922 9.94 169.482 10.42C169.062 10.88 168.732 11.45 168.492 12.13C168.252 12.79 168.132 13.52 168.132 14.32V14.8C168.132 16.5 168.572 17.83 169.452 18.79C170.352 19.73 171.512 20.2 172.932 20.2ZM185.301 19.84H190.701V3.16H185.481V0.999999H193.041V19.84H198.441V22H185.301V19.84ZM235.96 16.72C235.8 17.54 235.52 18.3 235.12 19C234.74 19.7 234.25 20.31 233.65 20.83C233.05 21.33 232.35 21.72 231.55 22C230.75 22.28 229.86 22.42 228.88 22.42C227.84 22.42 226.85 22.25 225.91 21.91C224.99 21.57 224.18 21.08 223.48 20.44C222.78 19.78 222.22 18.98 221.8 18.04C221.4 17.1 221.2 16.02 221.2 14.8V14.44C221.2 13.24 221.4 12.16 221.8 11.2C222.22 10.24 222.78 9.43 223.48 8.77C224.18 8.11 224.99 7.6 225.91 7.24C226.85 6.88 227.84 6.7 228.88 6.7C229.82 6.7 230.69 6.84 231.49 7.12C232.29 7.4 232.99 7.8 233.59 8.32C234.21 8.82 234.71 9.42 235.09 10.12C235.49 10.82 235.76 11.58 235.9 12.4L233.56 12.94C233.5 12.42 233.35 11.92 233.11 11.44C232.89 10.94 232.58 10.51 232.18 10.15C231.8 9.77 231.33 9.47 230.77 9.25C230.21 9.03 229.56 8.92 228.82 8.92C228.1 8.92 227.42 9.06 226.78 9.34C226.16 9.6 225.61 9.98 225.13 10.48C224.65 10.96 224.27 11.54 223.99 12.22C223.73 12.9 223.6 13.64 223.6 14.44V14.8C223.6 15.64 223.73 16.4 223.99 17.08C224.27 17.74 224.65 18.3 225.13 18.76C225.61 19.22 226.17 19.58 226.81 19.84C227.45 20.08 228.14 20.2 228.88 20.2C229.62 20.2 230.26 20.09 230.8 19.87C231.36 19.63 231.83 19.33 232.21 18.97C232.61 18.59 232.92 18.16 233.14 17.68C233.38 17.2 233.54 16.7 233.62 16.18L235.96 16.72ZM254.449 14.74C254.449 15.98 254.239 17.08 253.819 18.04C253.419 18.98 252.879 19.78 252.199 20.44C251.519 21.08 250.719 21.57 249.799 21.91C248.899 22.25 247.959 22.42 246.979 22.42C245.979 22.42 245.029 22.25 244.129 21.91C243.229 21.57 242.439 21.08 241.759 20.44C241.079 19.78 240.529 18.98 240.109 18.04C239.709 17.08 239.509 15.98 239.509 14.74V14.38C239.509 13.16 239.709 12.08 240.109 11.14C240.529 10.18 241.079 9.37 241.759 8.71C242.459 8.05 243.259 7.55 244.159 7.21C245.059 6.87 245.999 6.7 246.979 6.7C247.959 6.7 248.899 6.87 249.799 7.21C250.699 7.55 251.489 8.05 252.169 8.71C252.869 9.37 253.419 10.18 253.819 11.14C254.239 12.08 254.449 13.16 254.449 14.38V14.74ZM246.979 20.2C247.699 20.2 248.359 20.08 248.959 19.84C249.579 19.58 250.119 19.21 250.579 18.73C251.039 18.25 251.399 17.68 251.659 17.02C251.919 16.34 252.049 15.58 252.049 14.74V14.38C252.049 13.58 251.919 12.85 251.659 12.19C251.399 11.51 251.039 10.93 250.579 10.45C250.119 9.97 249.579 9.6 248.959 9.34C248.339 9.06 247.679 8.92 246.979 8.92C246.279 8.92 245.619 9.06 244.999 9.34C244.379 9.6 243.839 9.97 243.379 10.45C242.919 10.93 242.559 11.51 242.299 12.19C242.039 12.85 241.909 13.58 241.909 14.38V14.74C241.909 15.58 242.039 16.34 242.299 17.02C242.559 17.68 242.919 18.25 243.379 18.73C243.839 19.21 244.369 19.58 244.969 19.84C245.589 20.08 246.259 20.2 246.979 20.2ZM258.778 19.84H264.178V3.16H258.958V0.999999H266.518V19.84H271.918V22H258.778V19.84ZM277.147 19.84H282.547V3.16H277.327V0.999999H284.887V19.84H290.287V22H277.147V19.84ZM297.226 15.28C297.286 16.76 297.746 17.95 298.606 18.85C299.466 19.75 300.666 20.2 302.206 20.2C302.906 20.2 303.516 20.12 304.036 19.96C304.556 19.8 304.996 19.58 305.356 19.3C305.736 19.02 306.036 18.7 306.256 18.34C306.496 17.96 306.686 17.56 306.826 17.14L309.046 17.74C308.626 19.12 307.846 20.25 306.706 21.13C305.586 21.99 304.066 22.42 302.146 22.42C301.086 22.42 300.106 22.24 299.206 21.88C298.326 21.5 297.566 20.97 296.926 20.29C296.286 19.61 295.786 18.8 295.426 17.86C295.066 16.92 294.886 15.88 294.886 14.74V14.02C294.886 12.98 295.066 12.01 295.426 11.11C295.806 10.21 296.326 9.44 296.986 8.8C297.646 8.14 298.416 7.63 299.296 7.27C300.196 6.89 301.166 6.7 302.206 6.7C303.426 6.7 304.476 6.93 305.356 7.39C306.256 7.83 306.986 8.38 307.546 9.04C308.126 9.7 308.546 10.42 308.806 11.2C309.086 11.98 309.226 12.7 309.226 13.36V15.28H297.226ZM302.206 8.92C301.546 8.92 300.926 9.03 300.346 9.25C299.786 9.45 299.286 9.74 298.846 10.12C298.426 10.5 298.076 10.95 297.796 11.47C297.536 11.97 297.366 12.52 297.286 13.12H306.886C306.846 12.48 306.686 11.9 306.406 11.38C306.146 10.86 305.796 10.42 305.356 10.06C304.936 9.7 304.446 9.42 303.886 9.22C303.346 9.02 302.786 8.92 302.206 8.92ZM327.805 16.72C327.645 17.54 327.365 18.3 326.965 19C326.585 19.7 326.095 20.31 325.495 20.83C324.895 21.33 324.195 21.72 323.395 22C322.595 22.28 321.705 22.42 320.725 22.42C319.685 22.42 318.695 22.25 317.755 21.91C316.835 21.57 316.025 21.08 315.325 20.44C314.625 19.78 314.065 18.98 313.645 18.04C313.245 17.1 313.045 16.02 313.045 14.8V14.44C313.045 13.24 313.245 12.16 313.645 11.2C314.065 10.24 314.625 9.43 315.325 8.77C316.025 8.11 316.835 7.6 317.755 7.24C318.695 6.88 319.685 6.7 320.725 6.7C321.665 6.7 322.535 6.84 323.335 7.12C324.135 7.4 324.835 7.8 325.435 8.32C326.055 8.82 326.555 9.42 326.935 10.12C327.335 10.82 327.605 11.58 327.745 12.4L325.405 12.94C325.345 12.42 325.195 11.92 324.955 11.44C324.735 10.94 324.425 10.51 324.025 10.15C323.645 9.77 323.175 9.47 322.615 9.25C322.055 9.03 321.405 8.92 320.665 8.92C319.945 8.92 319.265 9.06 318.625 9.34C318.005 9.6 317.455 9.98 316.975 10.48C316.495 10.96 316.115 11.54 315.835 12.22C315.575 12.9 315.445 13.64 315.445 14.44V14.8C315.445 15.64 315.575 16.4 315.835 17.08C316.115 17.74 316.495 18.3 316.975 18.76C317.455 19.22 318.015 19.58 318.655 19.84C319.295 20.08 319.985 20.2 320.725 20.2C321.465 20.2 322.105 20.09 322.645 19.87C323.205 19.63 323.675 19.33 324.055 18.97C324.455 18.59 324.765 18.16 324.985 17.68C325.225 17.2 325.385 16.7 325.465 16.18L327.805 16.72ZM331.745 7.12H336.425V0.999999H338.765V7.12H344.525V9.28H338.765V18.94C338.765 19.54 339.035 19.84 339.575 19.84H343.805V22H338.735C338.055 22 337.495 21.78 337.055 21.34C336.635 20.9 336.425 20.34 336.425 19.66V9.28H331.745V7.12ZM355.244 2.68C355.244 2.1 355.444 1.61 355.844 1.21C356.264 0.789999 356.764 0.579999 357.344 0.579999C357.924 0.579999 358.414 0.789999 358.814 1.21C359.234 1.61 359.444 2.1 359.444 2.68C359.444 3.26 359.234 3.76 358.814 4.18C358.414 4.58 357.924 4.78 357.344 4.78C356.764 4.78 356.264 4.58 355.844 4.18C355.444 3.76 355.244 3.26 355.244 2.68ZM350.984 19.84H356.204V9.28H351.524V7.12H358.544V19.84H363.404V22H350.984V19.84ZM377.843 22H373.223L368.033 7.12H370.793L375.353 20.92H375.713L380.273 7.12H383.033L377.843 22ZM389.072 15.28C389.132 16.76 389.592 17.95 390.452 18.85C391.312 19.75 392.512 20.2 394.052 20.2C394.752 20.2 395.362 20.12 395.882 19.96C396.402 19.8 396.842 19.58 397.202 19.3C397.582 19.02 397.882 18.7 398.102 18.34C398.342 17.96 398.532 17.56 398.672 17.14L400.892 17.74C400.472 19.12 399.692 20.25 398.552 21.13C397.432 21.99 395.912 22.42 393.992 22.42C392.932 22.42 391.952 22.24 391.052 21.88C390.172 21.5 389.412 20.97 388.772 20.29C388.132 19.61 387.632 18.8 387.272 17.86C386.912 16.92 386.732 15.88 386.732 14.74V14.02C386.732 12.98 386.912 12.01 387.272 11.11C387.652 10.21 388.172 9.44 388.832 8.8C389.492 8.14 390.262 7.63 391.142 7.27C392.042 6.89 393.012 6.7 394.052 6.7C395.272 6.7 396.322 6.93 397.202 7.39C398.102 7.83 398.832 8.38 399.392 9.04C399.972 9.7 400.392 10.42 400.652 11.2C400.932 11.98 401.072 12.7 401.072 13.36V15.28H389.072ZM394.052 8.92C393.392 8.92 392.772 9.03 392.192 9.25C391.632 9.45 391.132 9.74 390.692 10.12C390.272 10.5 389.922 10.95 389.642 11.47C389.382 11.97 389.212 12.52 389.132 13.12H398.732C398.692 12.48 398.532 11.9 398.252 11.38C397.992 10.86 397.642 10.42 397.202 10.06C396.782 9.7 396.292 9.42 395.732 9.22C395.192 9.02 394.632 8.92 394.052 8.92ZM436.97 22H432.65L430.85 8.2H430.49L428.69 22H424.37L422.03 7.12H424.43L426.41 20.92H426.77L428.51 7.12H432.83L434.57 20.92H434.93L436.91 7.12H439.31L436.97 22ZM456.509 14.74C456.509 15.98 456.299 17.08 455.879 18.04C455.479 18.98 454.939 19.78 454.259 20.44C453.579 21.08 452.779 21.57 451.859 21.91C450.959 22.25 450.019 22.42 449.039 22.42C448.039 22.42 447.089 22.25 446.189 21.91C445.289 21.57 444.499 21.08 443.819 20.44C443.139 19.78 442.589 18.98 442.169 18.04C441.769 17.08 441.569 15.98 441.569 14.74V14.38C441.569 13.16 441.769 12.08 442.169 11.14C442.589 10.18 443.139 9.37 443.819 8.71C444.519 8.05 445.319 7.55 446.219 7.21C447.119 6.87 448.059 6.7 449.039 6.7C450.019 6.7 450.959 6.87 451.859 7.21C452.759 7.55 453.549 8.05 454.229 8.71C454.929 9.37 455.479 10.18 455.879 11.14C456.299 12.08 456.509 13.16 456.509 14.38V14.74ZM449.039 20.2C449.759 20.2 450.419 20.08 451.019 19.84C451.639 19.58 452.179 19.21 452.639 18.73C453.099 18.25 453.459 17.68 453.719 17.02C453.979 16.34 454.109 15.58 454.109 14.74V14.38C454.109 13.58 453.979 12.85 453.719 12.19C453.459 11.51 453.099 10.93 452.639 10.45C452.179 9.97 451.639 9.6 451.019 9.34C450.399 9.06 449.739 8.92 449.039 8.92C448.339 8.92 447.679 9.06 447.059 9.34C446.439 9.6 445.899 9.97 445.439 10.45C444.979 10.93 444.619 11.51 444.359 12.19C444.099 12.85 443.969 13.58 443.969 14.38V14.74C443.969 15.58 444.099 16.34 444.359 17.02C444.619 17.68 444.979 18.25 445.439 18.73C445.899 19.21 446.429 19.58 447.029 19.84C447.649 20.08 448.319 20.2 449.039 20.2ZM459.999 7.12H465.399V9.1H465.759C466.139 8.28 466.679 7.68 467.379 7.3C468.079 6.9 468.879 6.7 469.779 6.7C471.279 6.7 472.489 7.19 473.409 8.17C474.329 9.15 474.819 10.58 474.879 12.46L472.419 12.82C472.419 11.44 472.089 10.45 471.429 9.85C470.769 9.23 469.959 8.92 468.999 8.92C468.379 8.92 467.839 9.04 467.379 9.28C466.939 9.52 466.569 9.85 466.269 10.27C465.969 10.69 465.749 11.18 465.609 11.74C465.469 12.3 465.399 12.9 465.399 13.54V19.84H469.179V22H459.639V19.84H463.059V9.28H459.999V7.12ZM483.048 13.3H483.558L489.228 7.12H492.108V7.3L485.928 14.11V14.65L492.828 21.82V22H489.948L483.618 15.46H483.048V22H480.708V0.999999H483.048V13.3ZM502.197 2.68C502.197 2.1 502.397 1.61 502.797 1.21C503.217 0.789999 503.717 0.579999 504.297 0.579999C504.877 0.579999 505.367 0.789999 505.767 1.21C506.187 1.61 506.397 2.1 506.397 2.68C506.397 3.26 506.187 3.76 505.767 4.18C505.367 4.58 504.877 4.78 504.297 4.78C503.717 4.78 503.217 4.58 502.797 4.18C502.397 3.76 502.197 3.26 502.197 2.68ZM497.937 19.84H503.157V9.28H498.477V7.12H505.497V19.84H510.357V22H497.937V19.84ZM518.286 22H515.946V7.12H518.286V9.64H518.646C519.566 7.68 521.166 6.7 523.446 6.7C525.166 6.7 526.536 7.24 527.556 8.32C528.576 9.38 529.086 10.98 529.086 13.12V22H526.746V13.6C526.746 12.04 526.396 10.87 525.696 10.09C524.996 9.31 524.046 8.92 522.846 8.92C521.426 8.92 520.306 9.41 519.486 10.39C518.686 11.35 518.286 12.64 518.286 14.26V22ZM545.625 19.72H545.265C544.785 20.62 544.125 21.3 543.285 21.76C542.465 22.2 541.565 22.42 540.585 22.42C539.585 22.42 538.645 22.25 537.765 21.91C536.885 21.57 536.105 21.08 535.425 20.44C534.765 19.8 534.235 19.01 533.835 18.07C533.455 17.11 533.265 16.02 533.265 14.8V14.32C533.265 13.12 533.465 12.05 533.865 11.11C534.265 10.15 534.795 9.35 535.455 8.71C536.115 8.05 536.885 7.55 537.765 7.21C538.645 6.87 539.565 6.7 540.525 6.7C541.605 6.7 542.545 6.94 543.345 7.42C544.165 7.88 544.805 8.56 545.265 9.46H545.625V7.12H547.965V25.66C547.965 26.34 547.745 26.9 547.305 27.34C546.885 27.78 546.335 28 545.655 28H535.965V25.84H544.815C545.355 25.84 545.625 25.54 545.625 24.94V19.72ZM540.645 20.2C541.345 20.2 541.995 20.07 542.595 19.81C543.195 19.55 543.715 19.18 544.155 18.7C544.615 18.22 544.975 17.65 545.235 16.99C545.495 16.31 545.625 15.56 545.625 14.74V14.38C545.625 13.58 545.495 12.85 545.235 12.19C544.975 11.51 544.615 10.93 544.155 10.45C543.715 9.97 543.185 9.6 542.565 9.34C541.965 9.06 541.325 8.92 540.645 8.92C539.945 8.92 539.285 9.05 538.665 9.31C538.065 9.57 537.535 9.94 537.075 10.42C536.635 10.9 536.285 11.47 536.025 12.13C535.785 12.79 535.665 13.52 535.665 14.32V14.8C535.665 15.64 535.785 16.39 536.025 17.05C536.285 17.71 536.635 18.28 537.075 18.76C537.535 19.22 538.065 19.58 538.665 19.84C539.265 20.08 539.925 20.2 540.645 20.2ZM585.093 14.74C585.093 15.98 584.883 17.08 584.463 18.04C584.063 18.98 583.523 19.78 582.843 20.44C582.163 21.08 581.363 21.57 580.443 21.91C579.543 22.25 578.603 22.42 577.623 22.42C576.623 22.42 575.673 22.25 574.773 21.91C573.873 21.57 573.083 21.08 572.403 20.44C571.723 19.78 571.173 18.98 570.753 18.04C570.353 17.08 570.153 15.98 570.153 14.74V14.38C570.153 13.16 570.353 12.08 570.753 11.14C571.173 10.18 571.723 9.37 572.403 8.71C573.103 8.05 573.903 7.55 574.803 7.21C575.703 6.87 576.643 6.7 577.623 6.7C578.603 6.7 579.543 6.87 580.443 7.21C581.343 7.55 582.133 8.05 582.813 8.71C583.513 9.37 584.063 10.18 584.463 11.14C584.883 12.08 585.093 13.16 585.093 14.38V14.74ZM577.623 20.2C578.343 20.2 579.003 20.08 579.603 19.84C580.223 19.58 580.763 19.21 581.223 18.73C581.683 18.25 582.043 17.68 582.303 17.02C582.563 16.34 582.693 15.58 582.693 14.74V14.38C582.693 13.58 582.563 12.85 582.303 12.19C582.043 11.51 581.683 10.93 581.223 10.45C580.763 9.97 580.223 9.6 579.603 9.34C578.983 9.06 578.323 8.92 577.623 8.92C576.923 8.92 576.263 9.06 575.643 9.34C575.023 9.6 574.483 9.97 574.023 10.45C573.563 10.93 573.203 11.51 572.943 12.19C572.683 12.85 572.553 13.58 572.553 14.38V14.74C572.553 15.58 572.683 16.34 572.943 17.02C573.203 17.68 573.563 18.25 574.023 18.73C574.483 19.21 575.013 19.58 575.613 19.84C576.233 20.08 576.903 20.2 577.623 20.2ZM591.763 22H589.423V7.12H591.763V9.64H592.123C593.043 7.68 594.643 6.7 596.923 6.7C598.643 6.7 600.013 7.24 601.033 8.32C602.053 9.38 602.563 10.98 602.563 13.12V22H600.223V13.6C600.223 12.04 599.873 10.87 599.173 10.09C598.473 9.31 597.523 8.92 596.323 8.92C594.903 8.92 593.783 9.41 592.963 10.39C592.163 11.35 591.763 12.64 591.763 14.26V22ZM15.53 52.72C15.37 53.54 15.09 54.3 14.69 55C14.31 55.7 13.82 56.31 13.22 56.83C12.62 57.33 11.92 57.72 11.12 58C10.32 58.28 9.43 58.42 8.45 58.42C7.41 58.42 6.42 58.25 5.48 57.91C4.56 57.57 3.75 57.08 3.05 56.44C2.35 55.78 1.79 54.98 1.37 54.04C0.97 53.1 0.77 52.02 0.77 50.8V50.44C0.77 49.24 0.97 48.16 1.37 47.2C1.79 46.24 2.35 45.43 3.05 44.77C3.75 44.11 4.56 43.6 5.48 43.24C6.42 42.88 7.41 42.7 8.45 42.7C9.39 42.7 10.26 42.84 11.06 43.12C11.86 43.4 12.56 43.8 13.16 44.32C13.78 44.82 14.28 45.42 14.66 46.12C15.06 46.82 15.33 47.58 15.47 48.4L13.13 48.94C13.07 48.42 12.92 47.92 12.68 47.44C12.46 46.94 12.15 46.51 11.75 46.15C11.37 45.77 10.9 45.47 10.34 45.25C9.78 45.03 9.13 44.92 8.39 44.92C7.67 44.92 6.99 45.06 6.35 45.34C5.73 45.6 5.18 45.98 4.7 46.48C4.22 46.96 3.84 47.54 3.56 48.22C3.3 48.9 3.17 49.64 3.17 50.44V50.8C3.17 51.64 3.3 52.4 3.56 53.08C3.84 53.74 4.22 54.3 4.7 54.76C5.18 55.22 5.74 55.58 6.38 55.84C7.02 56.08 7.71 56.2 8.45 56.2C9.19 56.2 9.83 56.09 10.37 55.87C10.93 55.63 11.4 55.33 11.78 54.97C12.18 54.59 12.49 54.16 12.71 53.68C12.95 53.2 13.11 52.7 13.19 52.18L15.53 52.72ZM30.5991 43.12H32.9391V58H30.5991V55.3H30.2391C29.7591 56.26 29.1291 57.02 28.3491 57.58C27.5691 58.14 26.5791 58.42 25.3791 58.42C24.5591 58.42 23.7991 58.28 23.0991 58C22.4191 57.74 21.8291 57.34 21.3291 56.8C20.8491 56.26 20.4691 55.59 20.1891 54.79C19.9291 53.99 19.7991 53.06 19.7991 52V43.12H22.1391V51.7C22.1391 53.26 22.4591 54.4 23.0991 55.12C23.7391 55.84 24.7191 56.2 26.0391 56.2C27.4591 56.2 28.5691 55.72 29.3691 54.76C30.1891 53.78 30.5991 52.48 30.5991 50.86V43.12ZM37.8383 43.12H42.5183V37H44.8583V43.12H50.6183V45.28H44.8583V54.94C44.8583 55.54 45.1283 55.84 45.6683 55.84H49.8983V58H44.8283C44.1483 58 43.5883 57.78 43.1483 57.34C42.7283 56.9 42.5183 56.34 42.5183 55.66V45.28H37.8383V43.12ZM56.2074 43.12H60.8874V37H63.2274V43.12H68.9874V45.28H63.2274V54.94C63.2274 55.54 63.4974 55.84 64.0374 55.84H68.2674V58H63.1974C62.5174 58 61.9574 57.78 61.5174 57.34C61.0974 56.9 60.8874 56.34 60.8874 55.66V45.28H56.2074V43.12ZM79.7066 38.68C79.7066 38.1 79.9066 37.61 80.3066 37.21C80.7266 36.79 81.2266 36.58 81.8066 36.58C82.3866 36.58 82.8766 36.79 83.2766 37.21C83.6966 37.61 83.9066 38.1 83.9066 38.68C83.9066 39.26 83.6966 39.76 83.2766 40.18C82.8766 40.58 82.3866 40.78 81.8066 40.78C81.2266 40.78 80.7266 40.58 80.3066 40.18C79.9066 39.76 79.7066 39.26 79.7066 38.68ZM75.4466 55.84H80.6666V45.28H75.9866V43.12H83.0066V55.84H87.8666V58H75.4466V55.84ZM95.7957 58H93.4557V43.12H95.7957V45.64H96.1557C97.0757 43.68 98.6757 42.7 100.956 42.7C102.676 42.7 104.046 43.24 105.066 44.32C106.086 45.38 106.596 46.98 106.596 49.12V58H104.256V49.6C104.256 48.04 103.906 46.87 103.206 46.09C102.506 45.31 101.556 44.92 100.356 44.92C98.9357 44.92 97.8157 45.41 96.9957 46.39C96.1957 47.35 95.7957 48.64 95.7957 50.26V58ZM123.135 55.72H122.775C122.295 56.62 121.635 57.3 120.795 57.76C119.975 58.2 119.075 58.42 118.095 58.42C117.095 58.42 116.155 58.25 115.275 57.91C114.395 57.57 113.615 57.08 112.935 56.44C112.275 55.8 111.745 55.01 111.345 54.07C110.965 53.11 110.775 52.02 110.775 50.8V50.32C110.775 49.12 110.975 48.05 111.375 47.11C111.775 46.15 112.305 45.35 112.965 44.71C113.625 44.05 114.395 43.55 115.275 43.21C116.155 42.87 117.075 42.7 118.035 42.7C119.115 42.7 120.055 42.94 120.855 43.42C121.675 43.88 122.315 44.56 122.775 45.46H123.135V43.12H125.475V61.66C125.475 62.34 125.255 62.9 124.815 63.34C124.395 63.78 123.845 64 123.165 64H113.475V61.84H122.325C122.865 61.84 123.135 61.54 123.135 60.94V55.72ZM118.155 56.2C118.855 56.2 119.505 56.07 120.105 55.81C120.705 55.55 121.225 55.18 121.665 54.7C122.125 54.22 122.485 53.65 122.745 52.99C123.005 52.31 123.135 51.56 123.135 50.74V50.38C123.135 49.58 123.005 48.85 122.745 48.19C122.485 47.51 122.125 46.93 121.665 46.45C121.225 45.97 120.695 45.6 120.075 45.34C119.475 45.06 118.835 44.92 118.155 44.92C117.455 44.92 116.795 45.05 116.175 45.31C115.575 45.57 115.045 45.94 114.585 46.42C114.145 46.9 113.795 47.47 113.535 48.13C113.295 48.79 113.175 49.52 113.175 50.32V50.8C113.175 51.64 113.295 52.39 113.535 53.05C113.795 53.71 114.145 54.28 114.585 54.76C115.045 55.22 115.575 55.58 116.175 55.84C116.775 56.08 117.435 56.2 118.155 56.2ZM150.273 51.28C150.333 52.76 150.793 53.95 151.653 54.85C152.513 55.75 153.713 56.2 155.253 56.2C155.953 56.2 156.563 56.12 157.083 55.96C157.603 55.8 158.043 55.58 158.403 55.3C158.783 55.02 159.083 54.7 159.303 54.34C159.543 53.96 159.733 53.56 159.873 53.14L162.093 53.74C161.673 55.12 160.893 56.25 159.753 57.13C158.633 57.99 157.113 58.42 155.193 58.42C154.133 58.42 153.153 58.24 152.253 57.88C151.373 57.5 150.613 56.97 149.973 56.29C149.333 55.61 148.833 54.8 148.473 53.86C148.113 52.92 147.933 51.88 147.933 50.74V50.02C147.933 48.98 148.113 48.01 148.473 47.11C148.853 46.21 149.373 45.44 150.033 44.8C150.693 44.14 151.463 43.63 152.343 43.27C153.243 42.89 154.213 42.7 155.253 42.7C156.473 42.7 157.523 42.93 158.403 43.39C159.303 43.83 160.033 44.38 160.593 45.04C161.173 45.7 161.593 46.42 161.853 47.2C162.133 47.98 162.273 48.7 162.273 49.36V51.28H150.273ZM155.253 44.92C154.593 44.92 153.973 45.03 153.393 45.25C152.833 45.45 152.333 45.74 151.893 46.12C151.473 46.5 151.123 46.95 150.843 47.47C150.583 47.97 150.413 48.52 150.333 49.12H159.933C159.893 48.48 159.733 47.9 159.453 47.38C159.193 46.86 158.843 46.42 158.403 46.06C157.983 45.7 157.493 45.42 156.933 45.22C156.393 45.02 155.833 44.92 155.253 44.92ZM178.452 55.72H178.092C177.852 56.18 177.542 56.58 177.162 56.92C176.802 57.26 176.402 57.54 175.962 57.76C175.542 57.98 175.092 58.14 174.612 58.24C174.132 58.36 173.672 58.42 173.232 58.42C172.232 58.42 171.302 58.25 170.442 57.91C169.582 57.57 168.822 57.08 168.162 56.44C167.522 55.8 167.012 55.01 166.632 54.07C166.272 53.11 166.092 52.02 166.092 50.8V50.32C166.092 49.12 166.282 48.05 166.662 47.11C167.042 46.15 167.552 45.35 168.192 44.71C168.832 44.05 169.582 43.55 170.442 43.21C171.302 42.87 172.212 42.7 173.172 42.7C174.192 42.7 175.142 42.93 176.022 43.39C176.922 43.83 177.612 44.52 178.092 45.46H178.452V37H180.792V58H178.452V55.72ZM173.472 56.2C174.172 56.2 174.822 56.07 175.422 55.81C176.022 55.55 176.542 55.18 176.982 54.7C177.442 54.22 177.802 53.65 178.062 52.99C178.322 52.31 178.452 51.56 178.452 50.74V50.38C178.452 49.58 178.322 48.85 178.062 48.19C177.802 47.51 177.442 46.93 176.982 46.45C176.542 45.97 176.012 45.6 175.392 45.34C174.792 45.06 174.152 44.92 173.472 44.92C172.772 44.92 172.112 45.05 171.492 45.31C170.892 45.57 170.362 45.94 169.902 46.42C169.462 46.9 169.112 47.47 168.852 48.13C168.612 48.79 168.492 49.52 168.492 50.32V50.8C168.492 51.64 168.612 52.39 168.852 53.05C169.112 53.71 169.462 54.28 169.902 54.76C170.362 55.22 170.892 55.58 171.492 55.84C172.092 56.08 172.752 56.2 173.472 56.2ZM196.611 55.72H196.251C195.771 56.62 195.111 57.3 194.271 57.76C193.451 58.2 192.551 58.42 191.571 58.42C190.571 58.42 189.631 58.25 188.751 57.91C187.871 57.57 187.091 57.08 186.411 56.44C185.751 55.8 185.221 55.01 184.821 54.07C184.441 53.11 184.251 52.02 184.251 50.8V50.32C184.251 49.12 184.451 48.05 184.851 47.11C185.251 46.15 185.781 45.35 186.441 44.71C187.101 44.05 187.871 43.55 188.751 43.21C189.631 42.87 190.551 42.7 191.511 42.7C192.591 42.7 193.531 42.94 194.331 43.42C195.151 43.88 195.791 44.56 196.251 45.46H196.611V43.12H198.951V61.66C198.951 62.34 198.731 62.9 198.291 63.34C197.871 63.78 197.321 64 196.641 64H186.951V61.84H195.801C196.341 61.84 196.611 61.54 196.611 60.94V55.72ZM191.631 56.2C192.331 56.2 192.981 56.07 193.581 55.81C194.181 55.55 194.701 55.18 195.141 54.7C195.601 54.22 195.961 53.65 196.221 52.99C196.481 52.31 196.611 51.56 196.611 50.74V50.38C196.611 49.58 196.481 48.85 196.221 48.19C195.961 47.51 195.601 46.93 195.141 46.45C194.701 45.97 194.171 45.6 193.551 45.34C192.951 45.06 192.311 44.92 191.631 44.92C190.931 44.92 190.271 45.05 189.651 45.31C189.051 45.57 188.521 45.94 188.061 46.42C187.621 46.9 187.271 47.47 187.011 48.13C186.771 48.79 186.651 49.52 186.651 50.32V50.8C186.651 51.64 186.771 52.39 187.011 53.05C187.271 53.71 187.621 54.28 188.061 54.76C188.521 55.22 189.051 55.58 189.651 55.84C190.251 56.08 190.911 56.2 191.631 56.2ZM205.381 51.28C205.441 52.76 205.901 53.95 206.761 54.85C207.621 55.75 208.821 56.2 210.361 56.2C211.061 56.2 211.671 56.12 212.191 55.96C212.711 55.8 213.151 55.58 213.511 55.3C213.891 55.02 214.191 54.7 214.411 54.34C214.651 53.96 214.841 53.56 214.981 53.14L217.201 53.74C216.781 55.12 216.001 56.25 214.861 57.13C213.741 57.99 212.221 58.42 210.301 58.42C209.241 58.42 208.261 58.24 207.361 57.88C206.481 57.5 205.721 56.97 205.081 56.29C204.441 55.61 203.941 54.8 203.581 53.86C203.221 52.92 203.041 51.88 203.041 50.74V50.02C203.041 48.98 203.221 48.01 203.581 47.11C203.961 46.21 204.481 45.44 205.141 44.8C205.801 44.14 206.571 43.63 207.451 43.27C208.351 42.89 209.321 42.7 210.361 42.7C211.581 42.7 212.631 42.93 213.511 43.39C214.411 43.83 215.141 44.38 215.701 45.04C216.281 45.7 216.701 46.42 216.961 47.2C217.241 47.98 217.381 48.7 217.381 49.36V51.28H205.381ZM210.361 44.92C209.701 44.92 209.081 45.03 208.501 45.25C207.941 45.45 207.441 45.74 207.001 46.12C206.581 46.5 206.231 46.95 205.951 47.47C205.691 47.97 205.521 48.52 205.441 49.12H215.041C215.001 48.48 214.841 47.9 214.561 47.38C214.301 46.86 213.951 46.42 213.511 46.06C213.091 45.7 212.601 45.42 212.041 45.22C211.501 45.02 210.941 44.92 210.361 44.92ZM253.279 58H248.959L247.159 44.2H246.799L244.999 58H240.679L238.339 43.12H240.739L242.719 56.92H243.079L244.819 43.12H249.139L250.879 56.92H251.239L253.219 43.12H255.619L253.279 58ZM260.488 51.28C260.548 52.76 261.008 53.95 261.868 54.85C262.728 55.75 263.928 56.2 265.468 56.2C266.168 56.2 266.778 56.12 267.298 55.96C267.818 55.8 268.258 55.58 268.618 55.3C268.998 55.02 269.298 54.7 269.518 54.34C269.758 53.96 269.948 53.56 270.088 53.14L272.308 53.74C271.888 55.12 271.108 56.25 269.968 57.13C268.848 57.99 267.328 58.42 265.408 58.42C264.348 58.42 263.368 58.24 262.468 57.88C261.588 57.5 260.828 56.97 260.188 56.29C259.548 55.61 259.048 54.8 258.688 53.86C258.328 52.92 258.148 51.88 258.148 50.74V50.02C258.148 48.98 258.328 48.01 258.688 47.11C259.068 46.21 259.588 45.44 260.248 44.8C260.908 44.14 261.678 43.63 262.558 43.27C263.458 42.89 264.428 42.7 265.468 42.7C266.688 42.7 267.738 42.93 268.618 43.39C269.518 43.83 270.248 44.38 270.808 45.04C271.388 45.7 271.808 46.42 272.068 47.2C272.348 47.98 272.488 48.7 272.488 49.36V51.28H260.488ZM265.468 44.92C264.808 44.92 264.188 45.03 263.608 45.25C263.048 45.45 262.548 45.74 262.108 46.12C261.688 46.5 261.338 46.95 261.058 47.47C260.798 47.97 260.628 48.52 260.548 49.12H270.148C270.108 48.48 269.948 47.9 269.668 47.38C269.408 46.86 269.058 46.42 268.618 46.06C268.198 45.7 267.708 45.42 267.148 45.22C266.608 45.02 266.048 44.92 265.468 44.92ZM278.947 58H276.607V37H278.947V45.46H279.307C279.827 44.56 280.547 43.88 281.467 43.42C282.387 42.94 283.387 42.7 284.467 42.7C285.387 42.7 286.257 42.87 287.077 43.21C287.897 43.55 288.617 44.04 289.237 44.68C289.877 45.32 290.377 46.11 290.737 47.05C291.117 47.99 291.307 49.06 291.307 50.26V50.86C291.307 52.08 291.127 53.16 290.767 54.1C290.407 55.04 289.907 55.83 289.267 56.47C288.647 57.11 287.917 57.6 287.077 57.94C286.237 58.26 285.347 58.42 284.407 58.42C283.927 58.42 283.437 58.36 282.937 58.24C282.437 58.14 281.957 57.98 281.497 57.76C281.057 57.52 280.647 57.24 280.267 56.92C279.887 56.58 279.567 56.18 279.307 55.72H278.947V58ZM283.927 56.2C284.647 56.2 285.307 56.08 285.907 55.84C286.507 55.58 287.027 55.22 287.467 54.76C287.927 54.3 288.277 53.74 288.517 53.08C288.777 52.42 288.907 51.68 288.907 50.86V50.26C288.907 49.46 288.777 48.74 288.517 48.1C288.277 47.44 287.927 46.88 287.467 46.42C287.027 45.94 286.497 45.57 285.877 45.31C285.277 45.05 284.627 44.92 283.927 44.92C283.227 44.92 282.577 45.06 281.977 45.34C281.377 45.6 280.847 45.97 280.387 46.45C279.947 46.93 279.597 47.51 279.337 48.19C279.077 48.85 278.947 49.58 278.947 50.38V50.74C278.947 51.56 279.077 52.31 279.337 52.99C279.597 53.65 279.947 54.22 280.387 54.7C280.847 55.18 281.377 55.55 281.977 55.81C282.577 56.07 283.227 56.2 283.927 56.2ZM300.016 47.56V44.08L306.856 39.7V39.34H294.976V37H309.016V40.84L302.176 45.22V45.58H303.376C304.176 45.58 304.946 45.71 305.686 45.97C306.426 46.23 307.076 46.61 307.636 47.11C308.216 47.61 308.676 48.23 309.016 48.97C309.376 49.69 309.556 50.53 309.556 51.49V52.03C309.556 52.93 309.376 53.77 309.016 54.55C308.656 55.33 308.156 56.01 307.516 56.59C306.876 57.15 306.116 57.6 305.236 57.94C304.376 58.26 303.436 58.42 302.416 58.42C301.236 58.42 300.176 58.24 299.236 57.88C298.296 57.52 297.496 57.03 296.836 56.41C296.176 55.77 295.666 55.03 295.306 54.19C294.966 53.33 294.796 52.42 294.796 51.46V49.84H297.316V51.28C297.316 52.04 297.436 52.72 297.676 53.32C297.936 53.9 298.286 54.4 298.726 54.82C299.186 55.22 299.726 55.53 300.346 55.75C300.966 55.97 301.636 56.08 302.356 56.08C303.016 56.08 303.626 55.97 304.186 55.75C304.766 55.53 305.266 55.23 305.686 54.85C306.106 54.45 306.436 53.99 306.676 53.47C306.916 52.93 307.036 52.36 307.036 51.76V51.58C307.036 50.32 306.636 49.34 305.836 48.64C305.036 47.92 304.036 47.56 302.836 47.56H300.016ZM331.745 43.12H336.425V37H338.765V43.12H344.525V45.28H338.765V54.94C338.765 55.54 339.035 55.84 339.575 55.84H343.805V58H338.735C338.055 58 337.495 57.78 337.055 57.34C336.635 56.9 336.425 56.34 336.425 55.66V45.28H331.745V43.12ZM352.334 51.28C352.394 52.76 352.854 53.95 353.714 54.85C354.574 55.75 355.774 56.2 357.314 56.2C358.014 56.2 358.624 56.12 359.144 55.96C359.664 55.8 360.104 55.58 360.464 55.3C360.844 55.02 361.144 54.7 361.364 54.34C361.604 53.96 361.794 53.56 361.934 53.14L364.154 53.74C363.734 55.12 362.954 56.25 361.814 57.13C360.694 57.99 359.174 58.42 357.254 58.42C356.194 58.42 355.214 58.24 354.314 57.88C353.434 57.5 352.674 56.97 352.034 56.29C351.394 55.61 350.894 54.8 350.534 53.86C350.174 52.92 349.994 51.88 349.994 50.74V50.02C349.994 48.98 350.174 48.01 350.534 47.11C350.914 46.21 351.434 45.44 352.094 44.8C352.754 44.14 353.524 43.63 354.404 43.27C355.304 42.89 356.274 42.7 357.314 42.7C358.534 42.7 359.584 42.93 360.464 43.39C361.364 43.83 362.094 44.38 362.654 45.04C363.234 45.7 363.654 46.42 363.914 47.2C364.194 47.98 364.334 48.7 364.334 49.36V51.28H352.334ZM357.314 44.92C356.654 44.92 356.034 45.03 355.454 45.25C354.894 45.45 354.394 45.74 353.954 46.12C353.534 46.5 353.184 46.95 352.904 47.47C352.644 47.97 352.474 48.52 352.394 49.12H361.994C361.954 48.48 361.794 47.9 361.514 47.38C361.254 46.86 360.904 46.42 360.464 46.06C360.044 45.7 359.554 45.42 358.994 45.22C358.454 45.02 357.894 44.92 357.314 44.92ZM382.913 52.72C382.753 53.54 382.473 54.3 382.073 55C381.693 55.7 381.203 56.31 380.603 56.83C380.003 57.33 379.303 57.72 378.503 58C377.703 58.28 376.813 58.42 375.833 58.42C374.793 58.42 373.803 58.25 372.863 57.91C371.943 57.57 371.133 57.08 370.433 56.44C369.733 55.78 369.173 54.98 368.753 54.04C368.353 53.1 368.153 52.02 368.153 50.8V50.44C368.153 49.24 368.353 48.16 368.753 47.2C369.173 46.24 369.733 45.43 370.433 44.77C371.133 44.11 371.943 43.6 372.863 43.24C373.803 42.88 374.793 42.7 375.833 42.7C376.773 42.7 377.643 42.84 378.443 43.12C379.243 43.4 379.943 43.8 380.543 44.32C381.163 44.82 381.663 45.42 382.043 46.12C382.443 46.82 382.713 47.58 382.853 48.4L380.513 48.94C380.453 48.42 380.303 47.92 380.063 47.44C379.843 46.94 379.533 46.51 379.133 46.15C378.753 45.77 378.283 45.47 377.723 45.25C377.163 45.03 376.513 44.92 375.773 44.92C375.053 44.92 374.373 45.06 373.733 45.34C373.113 45.6 372.563 45.98 372.083 46.48C371.603 46.96 371.223 47.54 370.943 48.22C370.683 48.9 370.553 49.64 370.553 50.44V50.8C370.553 51.64 370.683 52.4 370.943 53.08C371.223 53.74 371.603 54.3 372.083 54.76C372.563 55.22 373.123 55.58 373.763 55.84C374.403 56.08 375.093 56.2 375.833 56.2C376.573 56.2 377.213 56.09 377.753 55.87C378.313 55.63 378.783 55.33 379.163 54.97C379.563 54.59 379.873 54.16 380.093 53.68C380.333 53.2 380.493 52.7 380.573 52.18L382.913 52.72ZM389.702 58H387.362V37H389.702V45.82H390.062C390.522 44.86 391.162 44.1 391.982 43.54C392.822 42.98 393.842 42.7 395.042 42.7C396.662 42.7 397.972 43.24 398.972 44.32C399.992 45.38 400.502 46.98 400.502 49.12V58H398.162V49.6C398.162 48.04 397.812 46.87 397.112 46.09C396.412 45.31 395.462 44.92 394.262 44.92C392.842 44.92 391.722 45.41 390.902 46.39C390.102 47.35 389.702 48.64 389.702 50.26V58ZM408.071 58H405.731V43.12H408.071V45.64H408.431C409.351 43.68 410.951 42.7 413.231 42.7C414.951 42.7 416.321 43.24 417.341 44.32C418.361 45.38 418.871 46.98 418.871 49.12V58H416.531V49.6C416.531 48.04 416.181 46.87 415.481 46.09C414.781 45.31 413.831 44.92 412.631 44.92C411.211 44.92 410.091 45.41 409.271 46.39C408.471 47.35 408.071 48.64 408.071 50.26V58ZM438.14 50.74C438.14 51.98 437.93 53.08 437.51 54.04C437.11 54.98 436.57 55.78 435.89 56.44C435.21 57.08 434.41 57.57 433.49 57.91C432.59 58.25 431.65 58.42 430.67 58.42C429.67 58.42 428.72 58.25 427.82 57.91C426.92 57.57 426.13 57.08 425.45 56.44C424.77 55.78 424.22 54.98 423.8 54.04C423.4 53.08 423.2 51.98 423.2 50.74V50.38C423.2 49.16 423.4 48.08 423.8 47.14C424.22 46.18 424.77 45.37 425.45 44.71C426.15 44.05 426.95 43.55 427.85 43.21C428.75 42.87 429.69 42.7 430.67 42.7C431.65 42.7 432.59 42.87 433.49 43.21C434.39 43.55 435.18 44.05 435.86 44.71C436.56 45.37 437.11 46.18 437.51 47.14C437.93 48.08 438.14 49.16 438.14 50.38V50.74ZM430.67 56.2C431.39 56.2 432.05 56.08 432.65 55.84C433.27 55.58 433.81 55.21 434.27 54.73C434.73 54.25 435.09 53.68 435.35 53.02C435.61 52.34 435.74 51.58 435.74 50.74V50.38C435.74 49.58 435.61 48.85 435.35 48.19C435.09 47.51 434.73 46.93 434.27 46.45C433.81 45.97 433.27 45.6 432.65 45.34C432.03 45.06 431.37 44.92 430.67 44.92C429.97 44.92 429.31 45.06 428.69 45.34C428.07 45.6 427.53 45.97 427.07 46.45C426.61 46.93 426.25 47.51 425.99 48.19C425.73 48.85 425.6 49.58 425.6 50.38V50.74C425.6 51.58 425.73 52.34 425.99 53.02C426.25 53.68 426.61 54.25 427.07 54.73C427.53 55.21 428.06 55.58 428.66 55.84C429.28 56.08 429.95 56.2 430.67 56.2ZM442.469 55.84H447.869V39.16H442.649V37H450.209V55.84H455.609V58H442.469V55.84ZM474.879 50.74C474.879 51.98 474.669 53.08 474.249 54.04C473.849 54.98 473.309 55.78 472.629 56.44C471.949 57.08 471.149 57.57 470.229 57.91C469.329 58.25 468.389 58.42 467.409 58.42C466.409 58.42 465.459 58.25 464.559 57.91C463.659 57.57 462.869 57.08 462.189 56.44C461.509 55.78 460.959 54.98 460.539 54.04C460.139 53.08 459.939 51.98 459.939 50.74V50.38C459.939 49.16 460.139 48.08 460.539 47.14C460.959 46.18 461.509 45.37 462.189 44.71C462.889 44.05 463.689 43.55 464.589 43.21C465.489 42.87 466.429 42.7 467.409 42.7C468.389 42.7 469.329 42.87 470.229 43.21C471.129 43.55 471.919 44.05 472.599 44.71C473.299 45.37 473.849 46.18 474.249 47.14C474.669 48.08 474.879 49.16 474.879 50.38V50.74ZM467.409 56.2C468.129 56.2 468.789 56.08 469.389 55.84C470.009 55.58 470.549 55.21 471.009 54.73C471.469 54.25 471.829 53.68 472.089 53.02C472.349 52.34 472.479 51.58 472.479 50.74V50.38C472.479 49.58 472.349 48.85 472.089 48.19C471.829 47.51 471.469 46.93 471.009 46.45C470.549 45.97 470.009 45.6 469.389 45.34C468.769 45.06 468.109 44.92 467.409 44.92C466.709 44.92 466.049 45.06 465.429 45.34C464.809 45.6 464.269 45.97 463.809 46.45C463.349 46.93 462.989 47.51 462.729 48.19C462.469 48.85 462.339 49.58 462.339 50.38V50.74C462.339 51.58 462.469 52.34 462.729 53.02C462.989 53.68 463.349 54.25 463.809 54.73C464.269 55.21 464.799 55.58 465.399 55.84C466.019 56.08 466.689 56.2 467.409 56.2ZM490.518 55.72H490.158C489.678 56.62 489.018 57.3 488.178 57.76C487.358 58.2 486.458 58.42 485.478 58.42C484.478 58.42 483.538 58.25 482.658 57.91C481.778 57.57 480.998 57.08 480.318 56.44C479.658 55.8 479.128 55.01 478.728 54.07C478.348 53.11 478.158 52.02 478.158 50.8V50.32C478.158 49.12 478.358 48.05 478.758 47.11C479.158 46.15 479.688 45.35 480.348 44.71C481.008 44.05 481.778 43.55 482.658 43.21C483.538 42.87 484.458 42.7 485.418 42.7C486.498 42.7 487.438 42.94 488.238 43.42C489.058 43.88 489.698 44.56 490.158 45.46H490.518V43.12H492.858V61.66C492.858 62.34 492.638 62.9 492.198 63.34C491.778 63.78 491.228 64 490.548 64H480.858V61.84H489.708C490.248 61.84 490.518 61.54 490.518 60.94V55.72ZM485.538 56.2C486.238 56.2 486.888 56.07 487.488 55.81C488.088 55.55 488.608 55.18 489.048 54.7C489.508 54.22 489.868 53.65 490.128 52.99C490.388 52.31 490.518 51.56 490.518 50.74V50.38C490.518 49.58 490.388 48.85 490.128 48.19C489.868 47.51 489.508 46.93 489.048 46.45C488.608 45.97 488.078 45.6 487.458 45.34C486.858 45.06 486.218 44.92 485.538 44.92C484.838 44.92 484.178 45.05 483.558 45.31C482.958 45.57 482.428 45.94 481.968 46.42C481.528 46.9 481.178 47.47 480.918 48.13C480.678 48.79 480.558 49.52 480.558 50.32V50.8C480.558 51.64 480.678 52.39 480.918 53.05C481.178 53.71 481.528 54.28 481.968 54.76C482.428 55.22 482.958 55.58 483.558 55.84C484.158 56.08 484.818 56.2 485.538 56.2ZM502.197 38.68C502.197 38.1 502.397 37.61 502.797 37.21C503.217 36.79 503.717 36.58 504.297 36.58C504.877 36.58 505.367 36.79 505.767 37.21C506.187 37.61 506.397 38.1 506.397 38.68C506.397 39.26 506.187 39.76 505.767 40.18C505.367 40.58 504.877 40.78 504.297 40.78C503.717 40.78 503.217 40.58 502.797 40.18C502.397 39.76 502.197 39.26 502.197 38.68ZM497.937 55.84H503.157V45.28H498.477V43.12H505.497V55.84H510.357V58H497.937V55.84ZM517.656 51.28C517.716 52.76 518.176 53.95 519.036 54.85C519.896 55.75 521.096 56.2 522.636 56.2C523.336 56.2 523.946 56.12 524.466 55.96C524.986 55.8 525.426 55.58 525.786 55.3C526.166 55.02 526.466 54.7 526.686 54.34C526.926 53.96 527.116 53.56 527.256 53.14L529.476 53.74C529.056 55.12 528.276 56.25 527.136 57.13C526.016 57.99 524.496 58.42 522.576 58.42C521.516 58.42 520.536 58.24 519.636 57.88C518.756 57.5 517.996 56.97 517.356 56.29C516.716 55.61 516.216 54.8 515.856 53.86C515.496 52.92 515.316 51.88 515.316 50.74V50.02C515.316 48.98 515.496 48.01 515.856 47.11C516.236 46.21 516.756 45.44 517.416 44.8C518.076 44.14 518.846 43.63 519.726 43.27C520.626 42.89 521.596 42.7 522.636 42.7C523.856 42.7 524.906 42.93 525.786 43.39C526.686 43.83 527.416 44.38 527.976 45.04C528.556 45.7 528.976 46.42 529.236 47.2C529.516 47.98 529.656 48.7 529.656 49.36V51.28H517.656ZM522.636 44.92C521.976 44.92 521.356 45.03 520.776 45.25C520.216 45.45 519.716 45.74 519.276 46.12C518.856 46.5 518.506 46.95 518.226 47.47C517.966 47.97 517.796 48.52 517.716 49.12H527.316C527.276 48.48 527.116 47.9 526.836 47.38C526.576 46.86 526.226 46.42 525.786 46.06C525.366 45.7 524.876 45.42 524.316 45.22C523.776 45.02 523.216 44.92 522.636 44.92ZM537.405 46.96C537.405 47.68 537.705 48.23 538.305 48.61C538.925 48.99 540.045 49.24 541.665 49.36C543.405 49.5 544.725 49.92 545.625 50.62C546.545 51.3 547.005 52.3 547.005 53.62V53.8C547.005 54.52 546.855 55.17 546.555 55.75C546.275 56.31 545.875 56.79 545.355 57.19C544.855 57.59 544.235 57.89 543.495 58.09C542.775 58.31 541.985 58.42 541.125 58.42C539.965 58.42 538.965 58.27 538.125 57.97C537.305 57.65 536.615 57.24 536.055 56.74C535.515 56.22 535.105 55.64 534.825 55C534.545 54.34 534.385 53.68 534.345 53.02L536.565 52.48C536.665 53.62 537.105 54.54 537.885 55.24C538.665 55.92 539.705 56.26 541.005 56.26C542.105 56.26 542.985 56.05 543.645 55.63C544.325 55.19 544.665 54.58 544.665 53.8C544.665 52.96 544.335 52.36 543.675 52C543.015 51.64 541.945 51.41 540.465 51.31C538.745 51.19 537.425 50.79 536.505 50.11C535.585 49.43 535.125 48.44 535.125 47.14V46.96C535.125 46.26 535.275 45.65 535.575 45.13C535.875 44.59 536.275 44.14 536.775 43.78C537.295 43.42 537.875 43.15 538.515 42.97C539.155 42.79 539.825 42.7 540.525 42.7C541.505 42.7 542.365 42.84 543.105 43.12C543.845 43.38 544.465 43.73 544.965 44.17C545.465 44.59 545.845 45.08 546.105 45.64C546.385 46.2 546.565 46.76 546.645 47.32L544.425 47.86C544.325 46.9 543.935 46.15 543.255 45.61C542.595 45.07 541.725 44.8 540.645 44.8C540.225 44.8 539.815 44.85 539.415 44.95C539.035 45.03 538.695 45.16 538.395 45.34C538.095 45.52 537.855 45.75 537.675 46.03C537.495 46.29 537.405 46.6 537.405 46.96Z" fill="#F0EEF3"/>
</svg>
