<svg width="554" height="53" viewBox="0 0 554 53" fill="none" xmlns="http://www.w3.org/2000/svg">
<path d="M59.128 1.6H0.736V12.544H23.128V52H36.736V12.544H59.128V1.6ZM113.828 1.6V20.608H80.4198V1.6H66.8838V52H80.4198V31.84H113.828V52H127.292V1.6H113.828ZM186.729 52H201.057L175.281 1.6H158.937L133.233 52H147.633L152.817 41.488H181.473L186.729 52ZM157.713 31.624L166.929 13.048H167.217L176.505 31.624H157.713ZM263.175 1.6H204.783V12.544H227.175V52H240.783V12.544H263.175V1.6ZM280.651 1.384C280.219 3.064 279.667 4.888 278.995 6.856C278.323 8.776 277.603 10.72 276.835 12.688C276.067 14.608 275.275 16.456 274.459 18.232H266.755C267.091 16.792 267.427 15.304 267.763 13.768C268.099 12.232 268.411 10.696 268.699 9.16C269.035 7.576 269.323 6.064 269.563 4.624C269.851 3.184 270.091 1.84 270.283 0.591997H280.147L280.651 1.384ZM329.236 18.376L342.916 17.008C340.828 5.56 327.724 0.879997 313.468 0.879997C300.796 0.879997 286.54 4.624 286.54 16.36C286.54 26.584 297.7 29.968 313.972 31.552C326.14 32.632 328.948 34.648 328.948 37.384C328.948 40.912 322.828 41.992 315.268 41.992C307.924 41.992 300.148 40.264 298.564 34.864L284.668 36.232C286.396 47.392 299.428 52.72 314.476 52.72C328.156 52.72 342.988 49.624 342.988 37.456C342.988 28.312 335.212 22.48 316.276 20.68C304.468 19.528 300.652 18.736 300.652 15.856C300.652 12.688 306.484 11.464 313.324 11.464C321.316 11.464 327.148 13.336 329.236 18.376ZM421.291 52H435.619L409.843 1.6H393.499L367.795 52H382.195L387.379 41.488H416.035L421.291 52ZM392.275 31.624L401.491 13.048H401.779L411.067 31.624H392.275ZM455.329 41.056V1.6H441.649V52H493.561V41.056H455.329ZM515.025 41.056V1.6H501.345V52H553.257V41.056H515.025Z" fill="#F0EEF3"/>
</svg>
