<svg width="341" height="36" viewBox="0 0 341 36" fill="none" xmlns="http://www.w3.org/2000/svg">
<path d="M23.736 1.4H0.36V35H9.144V24.056H23.736C33.72 24.056 37.704 19.064 37.704 12.728C37.704 6.392 33.864 1.4 23.736 1.4ZM23.4 17.096H9.144V8.36H23.4C26.664 8.36 28.872 9.896 28.872 12.728C28.872 15.56 26.664 17.096 23.4 17.096ZM75.8036 35H85.3556L68.1716 1.4H57.2756L40.1396 35H49.7396L53.1956 27.992H72.2996L75.8036 35ZM56.4596 21.416L62.6036 9.032H62.7956L68.9876 21.416H56.4596ZM125.616 28.52L125.472 26.504C125.184 22.856 123.936 20.024 119.76 19.448V19.256C123.36 18.44 126.384 15.896 126.384 11.24C126.384 6.056 122.832 1.4 113.568 1.4H89.3756V35H98.1116V23.144H109.776C113.616 23.144 116.064 24.968 116.304 28.04L116.448 29.096C116.688 31.592 116.928 33.608 117.936 35H127.008V34.136C126 32.552 125.808 30.872 125.616 28.52ZM112.032 16.232H98.1116V8.408H112.032C114.864 8.408 117.168 9.608 117.168 12.392C117.168 15.032 114.96 16.232 112.032 16.232ZM169.33 1.4H130.402V8.696H145.33V35H154.402V8.696H169.33V1.4ZM205.797 1.4V25.4H205.605L185.733 1.4H174.501V35H183.381V11H183.573L203.445 35H214.677V1.4H205.797ZM254.688 8.408V1.4H221.376V35H254.688V27.992H229.968V21.56H251.952V14.552H229.968V8.408H254.688ZM296.381 28.52L296.237 26.504C295.949 22.856 294.701 20.024 290.525 19.448V19.256C294.125 18.44 297.149 15.896 297.149 11.24C297.149 6.056 293.597 1.4 284.333 1.4H260.141V35H268.877V23.144H280.541C284.381 23.144 286.829 24.968 287.069 28.04L287.213 29.096C287.453 31.592 287.693 33.608 288.701 35H297.773V34.136C296.765 32.552 296.573 30.872 296.381 28.52ZM282.797 16.232H268.877V8.408H282.797C285.629 8.408 287.933 9.608 287.933 12.392C287.933 15.032 285.725 16.232 282.797 16.232ZM331.168 12.584L340.288 11.672C338.896 4.04 330.16 0.919998 320.656 0.919998C312.208 0.919998 302.704 3.416 302.704 11.24C302.704 18.056 310.144 20.312 320.992 21.368C329.104 22.088 330.976 23.432 330.976 25.256C330.976 27.608 326.896 28.328 321.856 28.328C316.96 28.328 311.776 27.176 310.72 23.576L301.456 24.488C302.608 31.928 311.296 35.48 321.328 35.48C330.448 35.48 340.336 33.416 340.336 25.304C340.336 19.208 335.152 15.32 322.528 14.12C314.656 13.352 312.112 12.824 312.112 10.904C312.112 8.792 316 7.976 320.56 7.976C325.888 7.976 329.776 9.224 331.168 12.584Z" fill="#24242A"/>
</svg>
