<svg width="101" height="121" viewBox="0 0 101 121" fill="none" xmlns="http://www.w3.org/2000/svg">
<path d="M101 77.2852H93.0156V77.2974H101V77.2852Z" fill="#F0EEF3"/>
<path d="M88.3111 77.2852H86.4902V77.2974H88.3111V77.2852Z" fill="#F0EEF3"/>
<path d="M93.0142 78.9437H100.998V74.2456H86.4885V64.4376H53.1553V78.9437H86.4885H88.3052V78.956V85.4348L67.6568 106.098L53.1553 120.604H73.653L87.3887 106.864L100.998 93.2502L93.0142 85.2637V78.956V78.9437Z" fill="#F0EEF3"/>
<path d="M49.8086 77.2978V77.2852L49.7959 77.2978H49.8086Z" fill="#F0EEF3"/>
<path d="M35.2979 77.2852V77.2974H43.1352L43.1515 77.2852H35.2979Z" fill="#F0EEF3"/>
<path d="M33.5002 74.2456V64.4376H0.167012V78.9437H33.5002H41.3538L41.3376 78.956L22.3796 97.9199L15.2796 90.8176L0.00407347 106.098L0 120.604H47.847V106.098H20.8643L47.9977 78.956L48.0099 78.9437V74.2456H33.5002Z" fill="#F0EEF3"/>
<path d="M47.8429 15.0138V10.3196H33.5002V0.511719H0V15.0138H27.337L22.3104 20.042L20.6851 21.6678L41.1787 42.172H0V56.674H47.8429L47.8347 42.172L34.266 28.599L47.8307 15.026L47.8429 15.0138Z" fill="#F0EEF3"/>
<path d="M100.833 15.0134L100.82 15.0257H101V10.3193H100.833V15.0134Z" fill="#F0EEF3"/>
<path d="M100.833 15.0138V10.3196H86.4904V0.511719H52.9902V15.0138H80.3232L75.3006 20.042L73.6712 21.6678L94.1689 42.172H52.9902V56.674H100.833V42.172L87.2562 28.599L100.821 15.026L100.833 15.0138Z" fill="#F0EEF3"/>
</svg>
