<svg width="260" height="309" viewBox="0 0 260 309" fill="none" xmlns="http://www.w3.org/2000/svg">
<path d="M259.278 197.083H238.782V197.115H259.278V197.083Z" fill="#F0EEF3"/>
<path d="M226.705 197.083H222.03V197.115H226.705V197.083Z" fill="#F0EEF3"/>
<path d="M238.779 201.345H259.275V189.284H222.027V164.106H136.457V201.345H222.027H226.691V201.376V218.008L173.684 271.053L136.457 308.292H189.077L224.338 273.019L259.275 238.071L238.779 217.569V201.376V201.345Z" fill="#F0EEF3"/>
<path d="M127.863 197.116V197.083L127.83 197.116H127.863Z" fill="#F0EEF3"/>
<path d="M90.6143 197.083V197.115H110.734L110.775 197.083H90.6143Z" fill="#F0EEF3"/>
<path d="M85.9987 189.284V164.106H0.428739V201.345H85.9987H106.16L106.118 201.376L57.451 250.059L39.2244 231.826L0.010457 271.053L0 308.292H122.828V271.053H53.561L123.215 201.376L123.247 201.345V189.284H85.9987Z" fill="#F0EEF3"/>
<path d="M122.818 37.2283V25.178H85.9987V0H0V37.2283H70.1772L57.2732 50.1364L53.1009 54.3101L105.71 106.947H0V144.175H122.818L122.797 106.947L87.9647 72.1031L122.787 37.2597L122.818 37.2283Z" fill="#F0EEF3"/>
<path d="M258.849 37.2283L258.817 37.2597H259.277V25.178H258.849V37.2283Z" fill="#F0EEF3"/>
<path d="M258.849 37.2283V25.178H222.03V0H136.031V37.2283H206.198L193.304 50.1364L189.122 54.3101L241.742 106.947H136.031V144.175H258.849V106.947L223.996 72.1031L258.818 37.2597L258.849 37.2283Z" fill="#F0EEF3"/>
</svg>
